<?xml version="1.0" encoding="UTF-8"?>
<svg xmlns="http://www.w3.org/2000/svg" 
     width="387" height="693" 
     viewBox="0 0 387 693">
  <title>Body Outline Front View</title>
  <g id="body-lines" stroke="#000000" stroke-width="1.5" fill="none" stroke-linecap="round" stroke-linejoin="round">
    <path d="M 201,630 Q 204,629 205.5,629.5 Q 207,630 208.5,630.5 Q 210,631 211.5,631.5 Q 213,632 214.5,632.0 Q 216,632 217.5,632.0 Q 219,632 220.5,631.5 Q 222,631 223.5,631.0 Q 225,631 225.5,632.5 Q 226,634 226.0,635.5 Q 226,637 226.0,638.5 Q 226,640 226.5,641.5 Q 227,643 227.5,644.5 Q 228,646 228.0,647.5 Q 228,649 227.5,650.5 Q 227,652 227.0,653.5 Q 227,655 228.0,656.5 Q 229,658 229.5,659.5 Q 230,661 231.0,662.5 Q 232,664 233.0,665.5 Q 234,667 235.5,668.0 Q 237,669 237.5,670.5 Q 238,672 237.0,673.0 Q 236,674 234.5,674.5 Q 233,675 231.5,675.5 Q 230,676 228.5,676.5 Q 227,677 225.5,677.0 Q 224,677 222.5,677.0 Q 221,677 219.5,676.5 Q 218,676 216.5,676.0 Q 215,676 213.5,676.5 Q 212,677 210.5,677.5 Q 209,678 207.5,678.5 Q 206,679 204.5,678.5 Q 203,678 201.5,677.0 Q 200,676 199.0,674.5 Q 198,673 198.5,671.5 Q 199,670 199.5,668.5 Q 200,667 200.0,665.5 Q 200,664 200.5,662.5 Q 201,661 201.0,659.5 Q 201,658 201.0,656.5 Q 201,655 201.0,653.5 Q 201,652 201.0,650.5 Q 201,649 200.5,647.5 Q 200,646 199.5,644.5 Q 199,643 199.0,641.5 Q 199,640 199.0,638.5 Q 199,637 199.5,635.5 Q 200,634 200.5,632.5 L 201,631" />
    <path d="M 174,630 Q 177,631 177.5,632.5 Q 178,634 178.0,635.5 Q 178,637 178.5,638.5 Q 179,640 179.0,641.5 Q 179,643 178.5,644.5 Q 178,646 178.0,647.5 Q 178,649 177.5,650.5 Q 177,652 177.0,653.5 Q 177,655 177.0,656.5 Q 177,658 177.5,659.5 Q 178,661 178.0,662.5 Q 178,664 178.5,665.5 Q 179,667 179.0,668.5 Q 179,670 179.0,671.5 Q 179,673 179.0,674.5 Q 179,676 177.5,677.0 Q 176,678 174.5,678.5 Q 173,679 171.5,679.0 Q 170,679 168.5,678.0 Q 167,677 165.5,677.0 Q 164,677 162.5,676.5 Q 161,676 159.5,676.5 Q 158,677 156.5,677.0 Q 155,677 153.5,676.5 Q 152,676 150.5,676.0 Q 149,676 147.5,675.5 Q 146,675 144.5,674.5 Q 143,674 142.0,673.0 Q 141,672 141.0,670.5 Q 141,669 142.5,668.0 Q 144,667 145.0,665.5 Q 146,664 147.0,662.5 Q 148,661 148.5,659.5 Q 149,658 150.0,656.5 Q 151,655 151.5,653.5 Q 152,652 151.5,650.5 Q 151,649 151.0,647.5 Q 151,646 151.0,644.5 Q 151,643 151.5,641.5 Q 152,640 152.0,638.5 Q 152,637 152.0,635.5 Q 152,634 152.5,632.5 Q 153,631 154.5,631.0 Q 156,631 157.5,631.5 Q 159,632 160.5,632.0 Q 162,632 163.5,632.0 Q 165,632 166.5,631.5 Q 168,631 169.5,631.0 L 171,631" />
    <path d="M 211,601 Q 213,600 214.0,600.0 Q 215,600 216.0,600.5 Q 217,601 218.0,601.0 Q 219,601 220.0,601.0 Q 221,601 222.0,601.5 Q 223,602 224.0,602.0 Q 225,602 226.0,602.5 Q 227,603 228.0,603.5 Q 229,604 230.0,604.5 Q 231,605 231.5,606.0 Q 232,607 232.0,608.0 Q 232,609 231.5,610.0 Q 231,611 231.0,612.0 Q 231,613 230.5,614.0 Q 230,615 230.0,616.0 Q 230,617 229.5,618.0 Q 229,619 229.0,620.0 Q 229,621 228.5,622.0 Q 228,623 228.0,624.0 Q 228,625 227.5,626.0 Q 227,627 227.0,628.0 Q 227,629 226.5,630.0 Q 226,631 225.0,631.0 Q 224,631 223.0,631.0 Q 222,631 221.0,631.0 Q 220,631 219.0,631.5 Q 218,632 217.0,632.0 Q 216,632 215.0,632.0 Q 214,632 213.0,631.5 Q 212,631 211.0,631.0 Q 210,631 209.0,631.0 Q 208,631 207.0,630.5 Q 206,630 205.0,629.5 Q 204,629 203.0,628.5 Q 202,628 202.0,627.0 Q 202,626 202.5,625.0 Q 203,624 203.0,623.0 Q 203,622 203.0,621.0 Q 203,620 203.0,619.0 Q 203,618 203.5,617.0 Q 204,616 204.0,615.0 Q 204,614 204.0,613.0 Q 204,612 204.0,611.0 Q 204,610 204.0,609.0 Q 204,608 204.0,607.0 Q 204,606 204.0,605.0 Q 204,604 204.5,603.0 Q 205,602 206.0,601.5 Q 207,601 208.0,601.0 L 209,601" />
    <path d="M 161,601 Q 163,600 164.0,600.0 Q 165,600 166.0,600.0 Q 167,600 168.0,600.5 Q 169,601 170.0,601.0 Q 171,601 172.0,601.0 Q 173,601 173.5,602.0 Q 174,603 174.0,604.0 Q 174,605 174.0,606.0 Q 174,607 174.0,608.0 Q 174,609 174.0,610.0 Q 174,611 174.0,612.0 Q 174,613 174.0,614.0 Q 174,615 174.5,616.0 Q 175,617 175.0,618.0 Q 175,619 175.0,620.0 Q 175,621 175.0,622.0 Q 175,623 175.5,624.0 Q 176,625 176.0,626.0 Q 176,627 175.5,628.0 Q 175,629 174.0,629.5 Q 173,630 172.0,630.5 Q 171,631 170.0,631.0 Q 169,631 168.0,631.0 Q 167,631 166.0,631.5 Q 165,632 164.0,632.0 Q 163,632 162.0,632.0 Q 161,632 160.0,632.0 Q 159,632 158.0,631.5 Q 157,631 156.0,631.0 Q 155,631 154.0,631.0 Q 153,631 152.0,630.5 Q 151,630 151.0,629.0 Q 151,628 150.5,627.0 Q 150,626 150.0,625.0 Q 150,624 150.0,623.0 Q 150,622 149.5,621.0 Q 149,620 148.5,619.0 Q 148,618 148.0,617.0 Q 148,616 147.5,615.0 Q 147,614 147.0,613.0 Q 147,612 147.0,611.0 Q 147,610 146.5,609.0 Q 146,608 146.0,607.0 Q 146,606 147.0,605.5 Q 148,605 149.0,604.5 Q 150,604 151.0,603.5 Q 152,603 153.0,602.5 Q 154,602 155.0,601.5 Q 156,601 157.0,601.0 Q 158,601 159.0,601.0 L 160,601" />
    <path d="M 242,518 Q 244,520 244.5,522.0 Q 245,524 245.0,526.0 Q 245,528 245.5,530.0 Q 246,532 246.0,534.0 Q 246,536 246.0,538.0 Q 246,540 246.0,542.0 Q 246,544 246.0,546.0 Q 246,548 245.5,550.0 Q 245,552 245.0,554.0 Q 245,556 244.5,558.0 Q 244,560 243.5,562.0 Q 243,564 242.5,566.0 Q 242,568 241.5,570.0 Q 241,572 240.5,574.0 Q 240,576 240.0,578.0 Q 240,580 239.5,582.0 Q 239,584 238.0,586.0 Q 237,588 236.5,590.0 Q 236,592 235.5,594.0 Q 235,596 234.5,598.0 Q 234,600 233.5,602.0 Q 233,604 231.0,604.0 Q 229,604 227.0,603.0 Q 225,602 223.0,601.5 Q 221,601 219.0,601.0 Q 217,601 215.0,600.5 Q 213,600 211.0,600.5 Q 209,601 207.0,601.5 Q 205,602 204.5,600.0 Q 204,598 204.0,596.0 Q 204,594 203.5,592.0 Q 203,590 203.0,588.0 Q 203,586 202.5,584.0 Q 202,582 202.0,580.0 Q 202,578 202.0,576.0 Q 202,574 201.5,572.0 Q 201,570 201.0,568.0 Q 201,566 200.5,564.0 Q 200,562 200.0,560.0 Q 200,558 200.0,556.0 Q 200,554 200.0,552.0 Q 200,550 200.5,548.0 Q 201,546 201.0,544.0 Q 201,542 201.5,540.0 Q 202,538 202.0,536.0 Q 202,534 202.5,532.0 Q 203,530 203.0,528.0 Q 203,526 203.0,524.0 Q 203,522 205.0,521.5 Q 207,521 209.0,521.5 Q 211,522 213.0,522.5 Q 215,523 217.0,523.0 Q 219,523 221.0,523.0 Q 223,523 225.0,523.0 Q 227,523 229.0,522.5 Q 231,522 233.0,521.5 Q 235,521 237.0,519.5 L 239,518" />
    <path d="M 134,518 Q 138,518 140.0,519.0 Q 142,520 144.0,521.0 Q 146,522 148.0,522.5 Q 150,523 152.0,523.0 Q 154,523 156.0,523.0 Q 158,523 160.0,523.0 Q 162,523 164.0,523.0 Q 166,523 168.0,522.0 Q 170,521 172.0,520.5 Q 174,520 174.5,522.0 Q 175,524 175.0,526.0 Q 175,528 175.0,530.0 Q 175,532 175.5,534.0 Q 176,536 176.0,538.0 Q 176,540 176.5,542.0 Q 177,544 177.0,546.0 Q 177,548 177.0,550.0 Q 177,552 177.5,554.0 Q 178,556 177.5,558.0 Q 177,560 177.0,562.0 Q 177,564 177.0,566.0 Q 177,568 177.0,570.0 Q 177,572 176.5,574.0 Q 176,576 176.0,578.0 Q 176,580 176.0,582.0 Q 176,584 175.5,586.0 Q 175,588 175.0,590.0 Q 175,592 174.5,594.0 Q 174,596 174.0,598.0 Q 174,600 172.0,600.5 Q 170,601 168.0,600.5 Q 166,600 164.0,600.0 Q 162,600 160.0,600.5 Q 158,601 156.0,601.5 Q 154,602 152.0,603.0 Q 150,604 148.0,604.5 Q 146,605 145.0,603.0 Q 144,601 143.5,599.0 Q 143,597 142.5,595.0 Q 142,593 141.5,591.0 Q 141,589 140.5,587.0 Q 140,585 139.5,583.0 Q 139,581 138.5,579.0 Q 138,577 137.5,575.0 Q 137,573 136.5,571.0 Q 136,569 135.5,567.0 Q 135,565 134.5,563.0 Q 134,561 133.5,559.0 Q 133,557 133.0,555.0 Q 133,553 133.0,551.0 Q 133,549 132.5,547.0 Q 132,545 132.0,543.0 Q 132,541 132.0,539.0 Q 132,537 132.0,535.0 Q 132,533 132.5,531.0 Q 133,529 133.0,527.0 Q 133,525 133.0,523.0 L 133,521" />
    <path d="M 218,473 Q 221,472 222.5,472.0 Q 224,472 225.5,472.0 Q 227,472 228.5,472.5 Q 230,473 231.5,473.5 Q 233,474 234.5,474.5 Q 236,475 237.5,476.0 Q 239,477 240.5,477.5 Q 242,478 242.0,479.5 Q 242,481 241.5,482.5 Q 241,484 241.0,485.5 Q 241,487 241.0,488.5 Q 241,490 241.0,491.5 Q 241,493 241.5,494.5 Q 242,496 242.0,497.5 Q 242,499 242.0,500.5 Q 242,502 242.0,503.5 Q 242,505 242.5,506.5 Q 243,508 243.0,509.5 Q 243,511 243.5,512.5 Q 244,514 243.5,515.5 Q 243,517 241.5,517.5 Q 240,518 238.5,519.0 Q 237,520 235.5,520.5 Q 234,521 232.5,521.5 Q 231,522 229.5,522.5 Q 228,523 226.5,523.0 Q 225,523 223.5,523.0 Q 222,523 220.5,523.0 Q 219,523 217.5,523.0 Q 216,523 214.5,523.0 Q 213,523 211.5,522.5 Q 210,522 208.5,521.5 Q 207,521 205.5,521.0 Q 204,521 203.5,519.5 Q 203,518 203.0,516.5 Q 203,515 203.0,513.5 Q 203,512 202.5,510.5 Q 202,509 202.0,507.5 Q 202,506 201.5,504.5 Q 201,503 200.5,501.5 Q 200,500 199.5,498.5 Q 199,497 199.0,495.5 Q 199,494 198.5,492.5 Q 198,491 198.0,489.5 Q 198,488 198.0,486.5 Q 198,485 198.0,483.5 Q 198,482 198.0,480.5 Q 198,479 199.5,478.5 Q 201,478 202.5,477.5 Q 204,477 205.5,476.0 Q 207,475 208.5,474.5 Q 210,474 211.5,474.0 Q 213,474 214.5,473.5 L 216,473" />
    <path d="M 150,473 Q 153,472 154.5,472.0 Q 156,472 157.5,472.0 Q 159,472 160.5,472.5 Q 162,473 163.5,473.5 Q 165,474 166.5,474.0 Q 168,474 169.5,474.5 Q 171,475 172.5,476.0 Q 174,477 175.5,477.5 Q 177,478 178.5,479.0 Q 180,480 180.0,481.5 Q 180,483 180.0,484.5 Q 180,486 180.0,487.5 Q 180,489 179.5,490.5 Q 179,492 179.0,493.5 Q 179,495 178.5,496.5 Q 178,498 178.0,499.5 Q 178,501 177.5,502.5 Q 177,504 176.5,505.5 Q 176,507 176.0,508.5 Q 176,510 175.5,511.5 Q 175,513 175.0,514.5 Q 175,516 175.0,517.5 Q 175,519 173.5,520.0 Q 172,521 170.5,521.5 Q 169,522 167.5,522.5 Q 166,523 164.5,523.0 Q 163,523 161.5,523.0 Q 160,523 158.5,523.0 Q 157,523 155.5,523.0 Q 154,523 152.5,523.0 Q 151,523 149.5,522.5 Q 148,522 146.5,521.5 Q 145,521 143.5,520.5 Q 142,520 140.5,519.0 Q 139,518 137.5,517.5 Q 136,517 135.0,516.0 Q 134,515 134.0,513.5 Q 134,512 134.5,510.5 Q 135,509 135.0,507.5 Q 135,506 135.5,504.5 Q 136,503 136.0,501.5 Q 136,500 136.0,498.5 Q 136,497 136.0,495.5 Q 136,494 136.0,492.5 Q 136,491 136.5,489.5 Q 137,488 136.5,486.5 Q 136,485 136.0,483.5 Q 136,482 136.0,480.5 Q 136,479 137.0,478.0 Q 138,477 139.5,476.5 Q 141,476 142.5,475.0 Q 144,474 145.5,473.5 L 147,473" />
    <path d="M 258,376 Q 262,378 261.5,381.0 Q 261,384 261.0,387.0 Q 261,390 260.5,393.0 Q 260,396 260.0,399.0 Q 260,402 259.5,405.0 Q 259,408 258.0,411.0 Q 257,414 256.5,417.0 Q 256,420 255.5,423.0 Q 255,426 254.5,429.0 Q 254,432 253.0,435.0 Q 252,438 251.0,441.0 Q 250,444 249.5,447.0 Q 249,450 248.0,453.0 Q 247,456 246.5,459.0 Q 246,462 245.0,465.0 Q 244,468 243.5,471.0 Q 243,474 240.5,475.0 Q 238,476 235.0,474.5 Q 232,473 229.0,472.5 Q 226,472 223.0,472.0 Q 220,472 217.0,472.5 Q 214,473 211.0,474.0 Q 208,475 205.0,476.0 Q 202,477 199.5,477.0 Q 197,477 197.0,474.0 Q 197,471 196.5,468.0 Q 196,465 196.0,462.0 Q 196,459 196.0,456.0 Q 196,453 196.0,450.0 Q 196,447 196.0,444.0 Q 196,441 196.0,438.0 Q 196,435 196.0,432.0 Q 196,429 196.0,426.0 Q 196,423 195.5,420.0 Q 195,417 195.0,414.0 Q 195,411 194.5,408.0 Q 194,405 194.0,402.0 Q 194,399 193.5,396.0 Q 193,393 193.0,390.0 Q 193,387 193.5,384.5 Q 194,382 197.0,383.0 Q 200,384 203.0,385.5 Q 206,387 209.0,387.0 Q 212,387 215.0,387.0 Q 218,387 221.0,387.0 Q 224,387 227.0,386.5 Q 230,386 233.0,385.0 Q 236,384 239.0,383.5 Q 242,383 245.0,382.0 Q 248,381 251.0,380.0 L 254,379" />
    <path d="M 116,376 Q 121,377 124.0,378.5 Q 127,380 130.0,381.0 Q 133,382 136.0,383.0 Q 139,384 142.0,384.5 Q 145,385 148.0,385.5 Q 151,386 154.0,386.5 Q 157,387 160.0,387.0 Q 163,387 166.0,387.0 Q 169,387 172.0,386.5 Q 175,386 178.0,384.5 Q 181,383 183.5,383.5 Q 186,384 185.5,387.0 Q 185,390 184.5,393.0 Q 184,396 184.0,399.0 Q 184,402 184.0,405.0 Q 184,408 183.5,411.0 Q 183,414 182.5,417.0 Q 182,420 182.0,423.0 Q 182,426 182.0,429.0 Q 182,432 181.5,435.0 Q 181,438 181.0,441.0 Q 181,444 181.0,447.0 Q 181,450 181.0,453.0 Q 181,456 181.0,459.0 Q 181,462 181.0,465.0 Q 181,468 181.0,471.0 Q 181,474 180.0,476.5 Q 179,479 176.0,477.5 Q 173,476 170.0,475.0 Q 167,474 164.0,473.5 Q 161,473 158.0,472.5 Q 155,472 152.0,472.5 Q 149,473 146.0,474.0 Q 143,475 140.0,476.0 Q 137,477 136.0,474.0 Q 135,471 134.0,468.0 Q 133,465 132.5,462.0 Q 132,459 131.0,456.0 Q 130,453 129.0,450.0 Q 128,447 127.5,444.0 Q 127,441 126.0,438.0 Q 125,435 124.5,432.0 Q 124,429 123.5,426.0 Q 123,423 122.0,420.0 Q 121,417 120.5,414.0 Q 120,411 119.5,408.0 Q 119,405 118.5,402.0 Q 118,399 117.5,396.0 Q 117,393 117.0,390.0 Q 117,387 116.5,384.0 L 116,381" />
    <path d="M 319,331 Q 324,331 326.5,331.5 Q 329,332 331.5,333.5 Q 334,335 336.5,337.0 Q 339,339 341.0,341.5 Q 343,344 345.5,346.5 Q 348,349 350.5,350.5 Q 353,352 354.0,354.5 Q 355,357 352.5,357.5 Q 350,358 347.5,357.0 Q 345,356 342.5,354.0 Q 340,352 338.5,352.5 Q 337,353 337.0,355.5 Q 337,358 337.5,360.5 Q 338,363 338.0,365.5 Q 338,368 338.5,370.5 Q 339,373 339.0,375.5 Q 339,378 339.5,380.5 Q 340,383 340.0,385.5 Q 340,388 340.5,390.5 Q 341,393 340.0,395.0 Q 339,397 337.0,395.5 Q 335,394 334.5,391.5 Q 334,389 333.5,386.5 Q 333,384 332.5,381.5 Q 332,379 331.5,376.5 Q 331,374 331.5,376.5 Q 332,379 332.5,381.5 Q 333,384 333.5,386.5 Q 334,389 334.5,391.5 Q 335,394 335.5,396.5 Q 336,399 334.0,400.0 Q 332,401 329.5,401.5 Q 327,402 325.5,399.5 Q 324,397 321.5,395.0 Q 319,393 318.5,390.5 Q 318,388 317.0,385.5 Q 316,383 315.5,380.5 Q 315,378 315.0,378.5 Q 315,379 316.0,381.5 Q 317,384 317.5,386.5 Q 318,389 318.0,391.5 Q 318,394 315.5,394.0 Q 313,394 312.0,391.5 Q 311,389 310.5,386.5 Q 310,384 309.0,381.5 Q 308,379 307.5,376.5 Q 307,374 305.5,371.5 Q 304,369 303.0,366.5 Q 302,364 301.5,361.5 Q 301,359 300.5,356.5 Q 300,354 300.0,351.5 Q 300,349 299.5,346.5 Q 299,344 301.5,343.5 Q 304,343 306.5,342.5 Q 309,342 311.5,340.0 Q 314,338 316.5,335.5 L 319,333" />
    <path d="M 55,331 Q 58,334 60.0,336.5 Q 62,339 64.5,341.0 Q 67,343 69.5,343.5 Q 72,344 74.5,344.0 Q 77,344 77.5,346.5 Q 78,349 77.5,351.5 Q 77,354 77.0,356.5 Q 77,359 76.5,361.5 Q 76,364 75.0,366.5 Q 74,369 72.5,371.5 Q 71,374 70.5,376.5 Q 70,379 69.0,381.5 Q 68,384 67.5,386.5 Q 67,389 65.5,391.5 Q 64,394 61.5,393.5 Q 59,393 59.5,390.5 Q 60,388 60.5,385.5 Q 61,383 62.0,380.5 Q 63,378 62.0,380.5 Q 61,383 60.5,385.5 Q 60,388 59.5,390.5 Q 59,393 56.5,395.0 Q 54,397 52.5,399.5 Q 51,402 48.5,401.5 Q 46,401 44.0,399.0 Q 42,397 42.5,394.5 Q 43,392 43.5,389.5 Q 44,387 44.5,384.5 Q 45,382 45.5,379.5 Q 46,377 46.5,374.5 Q 47,372 46.5,374.5 Q 46,377 45.5,379.5 Q 45,382 44.5,384.5 Q 44,387 43.5,389.5 Q 43,392 42.0,394.5 Q 41,397 39.0,396.5 Q 37,396 37.5,393.5 Q 38,391 38.0,388.5 Q 38,386 38.5,383.5 Q 39,381 39.0,378.5 Q 39,376 39.5,373.5 Q 40,371 40.0,368.5 Q 40,366 40.5,363.5 Q 41,361 41.5,358.5 Q 42,356 41.5,353.5 Q 41,351 40.5,351.0 Q 40,351 37.5,352.5 Q 35,354 32.5,355.5 Q 30,357 27.5,357.5 Q 25,358 24.0,356.0 Q 23,354 25.5,352.0 Q 28,350 30.5,348.0 Q 33,346 35.5,343.5 Q 38,341 40.0,339.0 Q 42,337 44.5,335.0 Q 47,333 49.5,332.0 L 52,331" />
    <path d="M 64,314 Q 65,313 65.5,313.0 Q 66,313 66.5,313.0 Q 67,313 67.5,313.0 Q 68,313 68.5,313.0 Q 69,313 69.5,313.0 Q 70,313 70.5,313.0 Q 71,313 71.5,313.0 Q 72,313 72.5,313.0 Q 73,313 73.5,313.0 Q 74,313 74.5,313.0 Q 75,313 75.5,313.0 Q 76,313 76.5,313.0 Q 77,313 77.5,313.5 Q 78,314 78.5,314.0 Q 79,314 79.5,314.0 Q 80,314 80.5,314.5 Q 81,315 81.5,315.0 Q 82,315 82.5,315.5 Q 83,316 83.5,316.0 Q 84,316 84.5,316.5 Q 85,317 85.5,317.5 Q 86,318 86.5,318.5 Q 87,319 87.5,319.5 Q 88,320 88.0,320.5 Q 88,321 88.0,321.5 Q 88,322 88.0,322.5 Q 88,323 87.5,323.5 Q 87,324 87.0,324.5 Q 87,325 86.5,325.5 Q 86,326 86.0,326.5 Q 86,327 85.5,327.5 Q 85,328 84.5,328.5 Q 84,329 84.0,329.5 Q 84,330 83.5,330.5 Q 83,331 83.0,331.5 Q 83,332 82.5,332.5 Q 82,333 82.0,333.5 Q 82,334 81.5,334.5 Q 81,335 81.0,335.5 Q 81,336 80.5,336.5 Q 80,337 80.0,337.5 Q 80,338 79.5,338.5 Q 79,339 79.0,339.5 Q 79,340 79.0,340.5 Q 79,341 78.5,341.5 Q 78,342 78.0,342.5 Q 78,343 77.5,343.5 Q 77,344 76.5,344.0 Q 76,344 75.5,344.0 Q 75,344 74.5,344.0 Q 74,344 73.5,344.0 Q 73,344 72.5,344.0 Q 72,344 71.5,344.0 Q 71,344 70.5,344.0 Q 70,344 69.5,344.0 Q 69,344 68.5,343.5 Q 68,343 67.5,343.0 Q 67,343 66.5,342.5 Q 66,342 65.5,341.5 Q 65,341 64.5,341.0 Q 64,341 63.5,340.5 Q 63,340 62.5,339.5 Q 62,339 61.5,338.5 Q 61,338 60.5,337.5 Q 60,337 59.5,336.5 Q 59,336 59.0,335.5 Q 59,335 58.5,334.5 Q 58,334 57.5,333.5 Q 57,333 57.0,332.5 Q 57,332 57.0,331.5 Q 57,331 56.5,330.5 Q 56,330 56.5,329.5 Q 57,329 57.0,328.5 Q 57,328 57.5,327.5 Q 58,327 58.5,326.5 Q 59,326 59.0,325.5 Q 59,325 59.5,324.5 Q 60,324 60.0,323.5 Q 60,323 60.5,322.5 Q 61,322 61.0,321.5 Q 61,321 61.0,320.5 Q 61,320 61.5,319.5 Q 62,319 62.0,318.5 Q 62,318 62.0,317.5 Q 62,317 62.5,316.5 Q 63,316 63.0,315.5 L 63,315" />
    <path d="M 312,313 Q 313,312 313.5,312.5 Q 314,313 314.0,313.5 Q 314,314 314.0,314.5 Q 314,315 314.5,315.5 Q 315,316 315.0,316.5 Q 315,317 315.5,317.5 Q 316,318 316.0,318.5 Q 316,319 316.0,319.5 Q 316,320 316.5,320.5 Q 317,321 317.0,321.5 Q 317,322 317.5,322.5 Q 318,323 318.0,323.5 Q 318,324 318.5,324.5 Q 319,325 319.0,325.5 Q 319,326 319.5,326.5 Q 320,327 320.0,327.5 Q 320,328 320.0,328.5 Q 320,329 320.0,329.5 Q 320,330 319.5,330.5 Q 319,331 319.0,331.5 Q 319,332 319.0,332.5 Q 319,333 318.5,333.5 Q 318,334 317.5,334.5 Q 317,335 316.5,335.5 Q 316,336 315.5,336.5 Q 315,337 314.5,337.5 Q 314,338 313.5,338.5 Q 313,339 312.5,339.5 Q 312,340 311.5,340.5 Q 311,341 310.5,341.0 Q 310,341 309.5,341.5 Q 309,342 308.5,342.0 Q 308,342 307.5,342.5 Q 307,343 306.5,343.0 Q 306,343 305.5,343.0 Q 305,343 304.5,343.0 Q 304,343 303.5,343.0 Q 303,343 302.5,343.0 Q 302,343 301.5,343.0 Q 301,343 300.5,343.0 Q 300,343 299.5,342.5 Q 299,342 299.0,341.5 Q 299,341 299.0,340.5 Q 299,340 299.0,339.5 Q 299,339 298.5,338.5 Q 298,338 297.5,337.5 Q 297,337 297.0,336.5 Q 297,336 297.0,335.5 Q 297,335 296.5,334.5 Q 296,334 296.0,333.5 Q 296,333 295.5,332.5 Q 295,332 295.0,331.5 Q 295,331 294.5,330.5 Q 294,330 293.5,329.5 Q 293,329 293.0,328.5 Q 293,328 293.0,327.5 Q 293,327 292.5,326.5 Q 292,326 291.5,325.5 Q 291,325 291.0,324.5 Q 291,324 290.5,323.5 Q 290,323 290.0,322.5 Q 290,322 290.0,321.5 Q 290,321 289.5,320.5 Q 289,320 289.5,319.5 Q 290,319 290.5,319.0 Q 291,319 291.5,318.5 Q 292,318 292.5,317.5 Q 293,317 293.5,316.5 Q 294,316 294.5,316.0 Q 295,316 295.5,315.5 Q 296,315 296.5,315.0 Q 297,315 297.5,315.0 Q 298,315 298.5,314.5 Q 299,314 299.5,314.0 Q 300,314 300.5,314.0 Q 301,314 301.5,313.5 Q 302,313 302.5,313.0 Q 303,313 303.5,313.0 Q 304,313 304.5,313.0 Q 305,313 305.5,313.0 Q 306,313 306.5,313.0 Q 307,313 307.5,313.0 Q 308,313 308.5,313.0 Q 309,313 309.5,313.0 Q 310,313 310.5,313.0 L 311,313" />
    <path d="M 226,307 Q 230,306 230.5,308.0 Q 231,310 230.0,312.0 Q 229,314 228.5,316.0 Q 228,318 228.0,320.0 Q 228,322 228.0,324.0 Q 228,326 228.0,328.0 Q 228,330 228.0,332.0 Q 228,334 228.0,336.0 Q 228,338 228.5,340.0 Q 229,342 229.5,344.0 Q 230,346 231.0,348.0 Q 232,350 233.0,352.0 Q 234,354 235.0,356.0 Q 236,358 238.0,360.0 Q 240,362 242.0,364.0 Q 244,366 246.0,367.5 Q 248,369 250.0,370.5 Q 252,372 254.0,373.0 Q 256,374 256.5,375.5 Q 257,377 255.0,378.0 Q 253,379 251.0,379.5 Q 249,380 247.0,381.0 Q 245,382 243.0,382.5 Q 241,383 239.0,383.5 Q 237,384 235.0,384.5 Q 233,385 231.0,385.5 Q 229,386 227.0,386.5 Q 225,387 223.0,387.0 Q 221,387 219.0,387.0 Q 217,387 215.0,387.0 Q 213,387 211.0,387.0 Q 209,387 207.0,386.5 Q 205,386 203.0,385.5 Q 201,385 199.0,384.0 Q 197,383 195.0,382.5 Q 193,382 192.5,380.0 Q 192,378 191.5,376.0 Q 191,374 190.0,372.0 Q 189,370 189.0,368.0 Q 189,366 189.0,364.0 Q 189,362 189.0,360.0 Q 189,358 189.0,356.0 Q 189,354 189.0,352.0 Q 189,350 189.0,348.0 Q 189,346 189.0,344.0 Q 189,342 189.0,340.0 Q 189,338 189.0,336.0 Q 189,334 189.0,332.0 Q 189,330 189.0,328.0 Q 189,326 189.0,324.0 Q 189,322 189.0,320.0 Q 189,318 189.0,316.0 Q 189,314 191.0,313.5 Q 193,313 195.0,313.0 Q 197,313 199.0,312.5 Q 201,312 203.0,312.0 Q 205,312 207.0,311.5 Q 209,311 211.0,311.0 Q 213,311 215.0,310.5 Q 217,310 219.0,309.0 Q 221,308 223.0,307.5 L 225,307" />
    <path d="M 148,307 Q 152,307 154.0,307.5 Q 156,308 158.0,308.5 Q 160,309 162.0,309.5 Q 164,310 166.0,310.5 Q 168,311 170.0,311.5 Q 172,312 174.0,312.0 Q 176,312 178.0,312.0 Q 180,312 182.0,312.5 Q 184,313 186.0,313.0 Q 188,313 188.5,315.0 Q 189,317 189.0,319.0 Q 189,321 189.0,323.0 Q 189,325 189.0,327.0 Q 189,329 189.0,331.0 Q 189,333 189.0,335.0 Q 189,337 189.0,339.0 Q 189,341 189.0,343.0 Q 189,345 189.0,347.0 Q 189,349 189.0,351.0 Q 189,353 189.0,355.0 Q 189,357 189.0,359.0 Q 189,361 189.0,363.0 Q 189,365 189.0,367.0 Q 189,369 188.0,371.0 Q 187,373 187.0,375.0 Q 187,377 186.5,379.0 Q 186,381 184.0,382.0 Q 182,383 180.0,384.0 Q 178,385 176.0,385.5 Q 174,386 172.0,386.5 Q 170,387 168.0,387.0 Q 166,387 164.0,387.0 Q 162,387 160.0,387.0 Q 158,387 156.0,387.0 Q 154,387 152.0,386.5 Q 150,386 148.0,386.0 Q 146,386 144.0,385.5 Q 142,385 140.0,384.0 Q 138,383 136.0,382.5 Q 134,382 132.0,381.5 Q 130,381 128.0,380.0 Q 126,379 124.0,378.5 Q 122,378 121.5,376.0 Q 121,374 123.0,373.0 Q 125,372 127.0,371.0 Q 129,370 131.0,368.5 Q 133,367 135.0,365.5 Q 137,364 138.5,362.0 Q 140,360 141.5,358.0 Q 143,356 144.0,354.0 Q 145,352 146.0,350.0 Q 147,348 148.0,346.0 Q 149,344 149.5,342.0 Q 150,340 150.5,338.0 Q 151,336 151.0,334.0 Q 151,332 151.0,330.0 Q 151,328 151.0,326.0 Q 151,324 150.5,322.0 Q 150,320 150.0,318.0 Q 150,316 149.5,314.0 Q 149,312 148.5,310.0 L 148,308" />
    <path d="M 128,294 Q 131,293 132.5,293.0 Q 134,293 135.5,294.0 Q 137,295 138.5,296.5 Q 140,298 141.0,299.5 Q 142,301 143.5,302.5 Q 145,304 146.5,305.5 Q 148,307 148.0,308.5 Q 148,310 148.5,311.5 Q 149,313 149.5,314.5 Q 150,316 150.0,317.5 Q 150,319 150.5,320.5 Q 151,322 151.0,323.5 Q 151,325 151.0,326.5 Q 151,328 151.0,329.5 Q 151,331 151.0,332.5 Q 151,334 150.5,335.5 Q 150,337 150.0,338.5 Q 150,340 149.5,341.5 Q 149,343 148.5,344.5 Q 148,346 147.5,347.5 Q 147,349 146.0,350.5 Q 145,352 144.5,353.5 Q 144,355 143.0,356.5 Q 142,358 141.0,359.5 Q 140,361 138.5,362.5 Q 137,364 135.5,365.0 Q 134,366 132.5,367.5 Q 131,369 129.5,370.0 Q 128,371 126.5,371.5 Q 125,372 123.5,372.5 Q 122,373 120.5,374.0 Q 119,375 117.5,374.5 Q 116,374 115.5,372.5 Q 115,371 115.0,369.5 Q 115,368 115.0,366.5 Q 115,365 115.5,363.5 Q 116,362 116.0,360.5 Q 116,359 116.0,357.5 Q 116,356 116.0,354.5 Q 116,353 116.0,351.5 Q 116,350 116.5,348.5 Q 117,347 117.0,345.5 Q 117,344 117.5,342.5 Q 118,341 118.0,339.5 Q 118,338 118.0,336.5 Q 118,335 118.5,333.5 Q 119,332 119.5,330.5 Q 120,329 120.0,327.5 Q 120,326 120.5,324.5 Q 121,323 121.0,321.5 Q 121,320 121.5,318.5 Q 122,317 122.5,315.5 Q 123,314 123.0,312.5 Q 123,311 123.5,309.5 Q 124,308 124.5,306.5 Q 125,305 125.0,303.5 Q 125,302 125.5,300.5 Q 126,299 126.0,297.5 L 126,296" />
    <path d="M 248,293 Q 251,294 251.5,295.5 Q 252,297 252.5,298.5 Q 253,300 253.0,301.5 Q 253,303 253.5,304.5 Q 254,306 254.0,307.5 Q 254,309 254.5,310.5 Q 255,312 255.5,313.5 Q 256,315 256.0,316.5 Q 256,318 256.5,319.5 Q 257,321 257.5,322.5 Q 258,324 258.0,325.5 Q 258,327 258.5,328.5 Q 259,330 259.5,331.5 Q 260,333 260.0,334.5 Q 260,336 260.0,337.5 Q 260,339 260.5,340.5 Q 261,342 261.0,343.5 Q 261,345 261.0,346.5 Q 261,348 261.5,349.5 Q 262,351 262.0,352.5 Q 262,354 262.0,355.5 Q 262,357 262.0,358.5 Q 262,360 262.0,361.5 Q 262,363 262.0,364.5 Q 262,366 262.0,367.5 Q 262,369 262.0,370.5 Q 262,372 261.5,373.5 Q 261,375 259.5,375.0 Q 258,375 256.5,374.0 Q 255,373 253.5,372.5 Q 252,372 250.5,370.5 Q 249,369 247.5,368.0 Q 246,367 244.5,366.0 Q 243,365 241.5,363.5 Q 240,362 238.5,360.5 Q 237,359 236.0,357.5 Q 235,356 234.0,354.5 Q 233,353 232.5,351.5 Q 232,350 231.0,348.5 Q 230,347 230.0,345.5 Q 230,344 229.5,342.5 Q 229,341 228.5,339.5 Q 228,338 228.0,336.5 Q 228,335 228.0,333.5 Q 228,332 227.5,330.5 Q 227,329 227.5,327.5 Q 228,326 228.0,324.5 Q 228,323 228.0,321.5 Q 228,320 228.0,318.5 Q 228,317 228.5,315.5 Q 229,314 229.5,312.5 Q 230,311 230.5,309.5 Q 231,308 231.5,306.5 Q 232,305 233.5,303.5 Q 235,302 236.0,300.5 Q 237,299 238.5,297.5 Q 240,296 241.5,295.0 Q 243,294 244.5,293.5 L 246,293" />
    <path d="M 135,267 Q 138,266 139.5,266.0 Q 141,266 142.5,266.5 Q 144,267 145.5,267.0 Q 147,267 148.5,267.5 Q 150,268 151.5,268.0 Q 153,268 154.5,268.5 Q 156,269 157.5,269.0 Q 159,269 160.5,269.0 Q 162,269 163.5,269.5 Q 165,270 166.5,270.0 Q 168,270 169.5,270.5 Q 171,271 172.5,271.0 Q 174,271 175.5,271.0 Q 177,271 178.5,271.0 Q 180,271 181.5,271.0 Q 183,271 184.5,271.0 Q 186,271 187.5,271.5 Q 189,272 189.0,273.5 Q 189,275 189.0,276.5 Q 189,278 189.0,279.5 Q 189,281 189.0,282.5 Q 189,284 189.0,285.5 Q 189,287 189.0,288.5 Q 189,290 189.0,291.5 Q 189,293 189.0,294.5 Q 189,296 189.0,297.5 Q 189,299 189.0,300.5 Q 189,302 189.0,303.5 Q 189,305 189.0,306.5 Q 189,308 189.0,309.5 Q 189,311 188.0,312.0 Q 187,313 185.5,313.0 Q 184,313 182.5,312.5 Q 181,312 179.5,312.0 Q 178,312 176.5,312.0 Q 175,312 173.5,312.0 Q 172,312 170.5,311.5 Q 169,311 167.5,310.5 Q 166,310 164.5,310.0 Q 163,310 161.5,309.5 Q 160,309 158.5,308.5 Q 157,308 155.5,307.5 Q 154,307 152.5,307.0 Q 151,307 149.5,306.5 Q 148,306 146.5,305.0 Q 145,304 143.5,302.5 Q 142,301 141.0,299.5 Q 140,298 138.5,296.5 Q 137,295 135.5,294.0 Q 134,293 132.5,293.0 Q 131,293 129.5,292.5 Q 128,292 128.5,290.5 Q 129,289 129.5,287.5 Q 130,286 130.5,284.5 Q 131,283 131.5,281.5 Q 132,280 132.5,278.5 Q 133,277 133.5,275.5 Q 134,274 134.0,272.5 Q 134,271 134.5,269.5 L 135,268" />
    <path d="M 241,266 Q 243,267 243.0,268.5 Q 243,270 243.5,271.5 Q 244,273 244.5,274.5 Q 245,276 245.5,277.5 Q 246,279 246.5,280.5 Q 247,282 247.5,283.5 Q 248,285 248.5,286.5 Q 249,288 249.0,289.5 Q 249,291 248.0,292.0 Q 247,293 245.5,293.0 Q 244,293 242.5,294.5 Q 241,296 239.5,297.0 Q 238,298 237.0,299.5 Q 236,301 234.5,302.5 Q 233,304 231.5,305.0 Q 230,306 228.5,306.0 Q 227,306 225.5,306.5 Q 224,307 222.5,307.5 Q 221,308 219.5,308.5 Q 218,309 216.5,309.5 Q 215,310 213.5,310.5 Q 212,311 210.5,311.0 Q 209,311 207.5,311.5 Q 206,312 204.5,312.0 Q 203,312 201.5,312.0 Q 200,312 198.5,312.5 Q 197,313 195.5,313.0 Q 194,313 192.5,313.0 Q 191,313 190.0,312.0 Q 189,311 189.0,309.5 Q 189,308 189.0,306.5 Q 189,305 189.0,303.5 Q 189,302 189.0,300.5 Q 189,299 189.0,297.5 Q 189,296 189.0,294.5 Q 189,293 189.0,291.5 Q 189,290 189.0,288.5 Q 189,287 189.0,285.5 Q 189,284 189.0,282.5 Q 189,281 189.0,279.5 Q 189,278 189.0,276.5 Q 189,275 189.0,273.5 Q 189,272 190.5,271.5 Q 192,271 193.5,271.0 Q 195,271 196.5,271.0 Q 198,271 199.5,271.0 Q 201,271 202.5,271.0 Q 204,271 205.5,271.0 Q 207,271 208.5,271.0 Q 210,271 211.5,270.5 Q 213,270 214.5,269.5 Q 216,269 217.5,269.0 Q 219,269 220.5,269.0 Q 222,269 223.5,268.5 Q 225,268 226.5,268.0 Q 228,268 229.5,267.5 Q 231,267 232.5,267.0 Q 234,267 235.5,266.5 Q 237,266 238.5,266.0 L 240,266" />
    <path d="M 295,256 Q 298,255 299.0,256.0 Q 300,257 301.0,258.5 Q 302,260 302.5,261.5 Q 303,263 303.0,264.5 Q 303,266 303.5,267.5 Q 304,269 304.5,270.5 Q 305,272 305.0,273.5 Q 305,275 305.5,276.5 Q 306,278 306.5,279.5 Q 307,281 307.0,282.5 Q 307,284 307.5,285.5 Q 308,287 308.0,288.5 Q 308,290 308.5,291.5 Q 309,293 309.5,294.5 Q 310,296 310.0,297.5 Q 310,299 310.5,300.5 Q 311,302 311.5,303.5 Q 312,305 312.0,306.5 Q 312,308 312.5,309.5 Q 313,311 312.0,312.0 Q 311,313 309.5,313.0 Q 308,313 306.5,313.0 Q 305,313 303.5,313.0 Q 302,313 300.5,313.5 Q 299,314 297.5,314.5 Q 296,315 294.5,316.0 Q 293,317 291.5,318.0 Q 290,319 288.5,318.0 Q 287,317 286.0,315.5 Q 285,314 284.5,312.5 Q 284,311 283.5,309.5 Q 283,308 282.0,306.5 Q 281,305 280.0,303.5 Q 279,302 278.0,300.5 Q 277,299 276.5,297.5 Q 276,296 275.0,294.5 Q 274,293 273.5,291.5 Q 273,290 272.5,288.5 Q 272,287 271.0,285.5 Q 270,284 269.5,282.5 Q 269,281 268.5,279.5 Q 268,278 267.5,276.5 Q 267,275 266.5,273.5 Q 266,272 266.0,270.5 Q 266,269 265.5,267.5 Q 265,266 265.0,264.5 Q 265,263 264.5,261.5 Q 264,260 265.0,259.0 Q 266,258 267.5,258.0 Q 269,258 270.5,259.0 Q 272,260 273.5,260.0 Q 275,260 276.5,260.0 Q 278,260 279.5,260.0 Q 281,260 282.5,260.0 Q 284,260 285.5,259.5 Q 287,259 288.5,258.5 Q 290,258 291.5,257.5 L 293,257" />
    <path d="M 78,256 Q 81,255 82.5,255.5 Q 84,256 85.5,257.0 Q 87,258 88.5,258.5 Q 90,259 91.5,259.5 Q 93,260 94.5,260.0 Q 96,260 97.5,260.0 Q 99,260 100.5,260.0 Q 102,260 103.5,260.0 Q 105,260 106.5,259.5 Q 108,259 109.5,258.5 Q 111,258 112.5,259.5 Q 114,261 114.0,262.5 Q 114,264 113.5,265.5 Q 113,267 112.5,268.5 Q 112,270 112.0,271.5 Q 112,273 111.5,274.5 Q 111,276 110.5,277.5 Q 110,279 109.5,280.5 Q 109,282 108.5,283.5 Q 108,285 107.0,286.5 Q 106,288 105.5,289.5 Q 105,291 104.0,292.5 Q 103,294 102.0,295.5 Q 101,297 100.5,298.5 Q 100,300 99.5,301.5 Q 99,303 98.0,304.5 Q 97,306 96.0,307.5 Q 95,309 94.0,310.5 Q 93,312 92.5,313.5 Q 92,315 91.0,316.5 Q 90,318 88.5,318.5 Q 87,319 85.5,317.5 Q 84,316 82.5,315.5 Q 81,315 79.5,314.5 Q 78,314 76.5,313.5 Q 75,313 73.5,313.0 Q 72,313 70.5,313.0 Q 69,313 67.5,313.0 Q 66,313 65.5,311.5 Q 65,310 65.5,308.5 Q 66,307 66.5,305.5 Q 67,304 67.0,302.5 Q 67,301 67.5,299.5 Q 68,298 68.5,296.5 Q 69,295 69.5,293.5 Q 70,292 70.0,290.5 Q 70,289 70.0,287.5 Q 70,286 70.5,284.5 Q 71,283 71.5,281.5 Q 72,280 72.0,278.5 Q 72,277 72.5,275.5 Q 73,274 73.0,272.5 Q 73,271 73.5,269.5 Q 74,268 74.5,266.5 Q 75,265 75.5,263.5 Q 76,262 76.5,260.5 L 77,259" />
    <path d="M 273,234 Q 274,233 274.5,233.0 Q 275,233 275.5,233.0 Q 276,233 276.5,233.0 Q 277,233 277.5,233.0 Q 278,233 278.5,233.0 Q 279,233 279.5,233.0 Q 280,233 280.5,233.5 Q 281,234 281.5,234.0 Q 282,234 282.5,234.0 Q 283,234 283.5,234.0 Q 284,234 284.5,234.0 Q 285,234 285.5,234.5 Q 286,235 286.5,235.0 Q 287,235 287.5,235.5 Q 288,236 288.5,236.0 Q 289,236 289.5,236.0 Q 290,236 290.5,236.0 Q 291,236 291.5,236.5 Q 292,237 292.0,237.5 Q 292,238 292.5,238.5 Q 293,239 293.0,239.5 Q 293,240 293.0,240.5 Q 293,241 293.0,241.5 Q 293,242 293.5,242.5 Q 294,243 294.0,243.5 Q 294,244 294.0,244.5 Q 294,245 294.5,245.5 Q 295,246 295.0,246.5 Q 295,247 295.5,247.5 Q 296,248 296.0,248.5 Q 296,249 296.5,249.5 Q 297,250 297.0,250.5 Q 297,251 297.5,251.5 Q 298,252 298.0,252.5 Q 298,253 298.0,253.5 Q 298,254 297.5,254.5 Q 297,255 296.5,255.0 Q 296,255 295.5,255.5 Q 295,256 294.5,256.5 Q 294,257 293.5,257.0 Q 293,257 292.5,257.5 Q 292,258 291.5,258.0 Q 291,258 290.5,258.0 Q 290,258 289.5,258.5 Q 289,259 288.5,259.0 Q 288,259 287.5,259.0 Q 287,259 286.5,259.0 Q 286,259 285.5,259.5 Q 285,260 284.5,260.0 Q 284,260 283.5,260.0 Q 283,260 282.5,260.0 Q 282,260 281.5,260.0 Q 281,260 280.5,260.0 Q 280,260 279.5,260.0 Q 279,260 278.5,260.0 Q 278,260 277.5,260.0 Q 277,260 276.5,260.0 Q 276,260 275.5,260.0 Q 275,260 274.5,260.0 Q 274,260 273.5,260.0 Q 273,260 272.5,260.0 Q 272,260 271.5,259.5 Q 271,259 270.5,259.0 Q 270,259 269.5,258.5 Q 269,258 268.5,258.0 Q 268,258 267.5,258.0 Q 267,258 266.5,258.0 Q 266,258 265.5,258.0 Q 265,258 264.5,257.5 Q 264,257 263.5,256.5 Q 263,256 263.0,255.5 Q 263,255 263.0,254.5 Q 263,254 263.0,253.5 Q 263,253 263.0,252.5 Q 263,252 263.0,251.5 Q 263,251 262.5,250.5 Q 262,250 262.0,249.5 Q 262,249 262.0,248.5 Q 262,248 262.0,247.5 Q 262,247 261.5,246.5 Q 261,246 261.0,245.5 Q 261,245 261.0,244.5 Q 261,244 261.0,243.5 Q 261,243 260.5,242.5 Q 260,242 260.0,241.5 Q 260,241 260.5,240.5 Q 261,240 261.5,239.5 Q 262,239 262.5,239.0 Q 263,239 263.5,238.5 Q 264,238 264.5,238.0 Q 265,238 265.5,237.5 Q 266,237 266.5,236.5 Q 267,236 267.5,236.0 Q 268,236 268.5,235.5 Q 269,235 269.5,234.5 Q 270,234 270.5,234.0 Q 271,234 271.5,234.0 L 272,234" />
    <path d="M 95,234 Q 97,233 98.0,233.0 Q 99,233 100.0,233.0 Q 101,233 102.0,233.0 Q 103,233 104.0,233.0 Q 105,233 106.0,233.5 Q 107,234 108.0,234.5 Q 109,235 110.0,235.5 Q 111,236 112.0,236.5 Q 113,237 114.0,238.0 Q 115,239 116.0,239.5 Q 117,240 117.0,241.0 Q 117,242 117.0,243.0 Q 117,244 116.5,245.0 Q 116,246 116.0,247.0 Q 116,248 116.0,249.0 Q 116,250 115.5,251.0 Q 115,252 115.0,253.0 Q 115,254 115.0,255.0 Q 115,256 114.0,257.0 Q 113,258 112.0,258.0 Q 111,258 110.0,258.5 Q 109,259 108.0,259.0 Q 107,259 106.0,259.5 Q 105,260 104.0,260.0 Q 103,260 102.0,260.0 Q 101,260 100.0,260.0 Q 99,260 98.0,260.0 Q 97,260 96.0,260.0 Q 95,260 94.0,260.0 Q 93,260 92.0,259.5 Q 91,259 90.0,259.0 Q 89,259 88.0,258.5 Q 87,258 86.0,257.5 Q 85,257 84.0,256.5 Q 83,256 82.0,255.5 Q 81,255 80.0,254.5 Q 79,254 79.5,253.0 Q 80,252 80.5,251.0 Q 81,250 81.5,249.0 Q 82,248 82.5,247.0 Q 83,246 83.5,245.0 Q 84,244 84.5,243.0 Q 85,242 85.0,241.0 Q 85,240 85.5,239.0 Q 86,238 86.5,237.0 Q 87,236 88.0,236.0 Q 89,236 90.0,235.5 Q 91,235 92.0,234.5 L 93,234" />
    <path d="M 258,184 Q 261,184 262.5,184.0 Q 264,184 265.5,184.5 Q 267,185 268.5,185.0 Q 270,185 271.5,185.0 Q 273,185 274.5,185.0 Q 276,185 277.5,185.0 Q 279,185 280.5,184.5 Q 282,184 283.5,184.5 Q 285,185 285.0,186.5 Q 285,188 285.5,189.5 Q 286,191 286.0,192.5 Q 286,194 286.5,195.5 Q 287,197 287.0,198.5 Q 287,200 287.5,201.5 Q 288,203 288.0,204.5 Q 288,206 288.5,207.5 Q 289,209 289.0,210.5 Q 289,212 289.5,213.5 Q 290,215 290.0,216.5 Q 290,218 290.5,219.5 Q 291,221 291.0,222.5 Q 291,224 291.0,225.5 Q 291,227 291.0,228.5 Q 291,230 291.5,231.5 Q 292,233 291.5,234.5 Q 291,236 289.5,236.0 Q 288,236 286.5,235.0 Q 285,234 283.5,234.0 Q 282,234 280.5,233.5 Q 279,233 277.5,233.0 Q 276,233 274.5,233.5 Q 273,234 271.5,234.0 Q 270,234 268.5,235.0 Q 267,236 265.5,237.0 Q 264,238 262.5,239.0 Q 261,240 260.0,239.0 Q 259,238 258.5,236.5 Q 258,235 257.5,233.5 Q 257,232 257.0,230.5 Q 257,229 256.5,227.5 Q 256,226 255.5,224.5 Q 255,223 254.5,221.5 Q 254,220 254.0,218.5 Q 254,217 253.0,215.5 Q 252,214 252.0,212.5 Q 252,211 252.5,209.5 Q 253,208 253.0,206.5 Q 253,205 253.5,203.5 Q 254,202 254.5,200.5 Q 255,199 255.0,197.5 Q 255,196 255.5,194.5 Q 256,193 256.5,191.5 Q 257,190 257.0,188.5 L 257,187" />
    <path d="M 255,184 Q 258,186 257.5,188.5 Q 257,191 256.0,193.5 Q 255,196 254.5,198.5 Q 254,201 253.5,203.5 Q 253,206 252.5,208.5 Q 252,211 251.5,213.5 Q 251,216 250.0,218.5 Q 249,221 248.0,223.5 Q 247,226 246.5,228.5 Q 246,231 245.5,233.5 Q 245,236 244.5,238.5 Q 244,241 243.5,243.5 Q 243,246 242.5,248.5 Q 242,251 242.0,253.5 Q 242,256 242.0,258.5 Q 242,261 241.5,263.5 Q 241,266 238.5,266.0 Q 236,266 233.5,266.5 Q 231,267 228.5,267.5 Q 226,268 223.5,268.5 Q 221,269 218.5,269.0 Q 216,269 213.5,269.5 Q 211,270 208.5,270.5 Q 206,271 203.5,271.0 Q 201,271 198.5,271.0 Q 196,271 193.5,271.0 Q 191,271 190.0,269.0 Q 189,267 189.0,264.5 Q 189,262 189.0,259.5 Q 189,257 189.0,254.5 Q 189,252 189.0,249.5 Q 189,247 189.0,244.5 Q 189,242 189.0,239.5 Q 189,237 189.0,234.5 Q 189,232 189.0,229.5 Q 189,227 189.0,224.5 Q 189,222 189.0,219.5 Q 189,217 189.0,214.5 Q 189,212 189.0,209.5 Q 189,207 189.0,204.5 Q 189,202 189.0,199.5 Q 189,197 189.0,194.5 Q 189,192 191.0,191.0 Q 193,190 195.5,190.0 Q 198,190 200.5,190.5 Q 203,191 205.5,191.0 Q 208,191 210.5,191.0 Q 213,191 215.5,190.5 Q 218,190 220.5,190.0 Q 223,190 225.5,189.5 Q 228,189 230.5,188.5 Q 233,188 235.5,188.0 Q 238,188 240.5,187.5 Q 243,187 245.5,186.0 Q 248,185 250.5,184.5 L 253,184" />
    <path d="M 120,184 Q 125,184 127.5,185.0 Q 130,186 132.5,186.5 Q 135,187 137.5,187.5 Q 140,188 142.5,188.0 Q 145,188 147.5,188.5 Q 150,189 152.5,189.5 Q 155,190 157.5,190.0 Q 160,190 162.5,190.0 Q 165,190 167.5,190.5 Q 170,191 172.5,191.0 Q 175,191 177.5,190.5 Q 180,190 182.5,190.0 Q 185,190 187.0,191.0 Q 189,192 189.0,194.5 Q 189,197 189.0,199.5 Q 189,202 189.0,204.5 Q 189,207 189.0,209.5 Q 189,212 189.0,214.5 Q 189,217 189.0,219.5 Q 189,222 189.0,224.5 Q 189,227 189.0,229.5 Q 189,232 189.0,234.5 Q 189,237 189.0,239.5 Q 189,242 189.0,244.5 Q 189,247 189.0,249.5 Q 189,252 189.0,254.5 Q 189,257 189.0,259.5 Q 189,262 189.0,264.5 Q 189,267 188.0,269.0 Q 187,271 184.5,271.0 Q 182,271 179.5,271.0 Q 177,271 174.5,271.0 Q 172,271 169.5,270.5 Q 167,270 164.5,269.5 Q 162,269 159.5,269.0 Q 157,269 154.5,268.5 Q 152,268 149.5,267.5 Q 147,267 144.5,266.5 Q 142,266 139.5,266.0 Q 137,266 136.5,263.5 Q 136,261 136.0,258.5 Q 136,256 135.5,253.5 Q 135,251 135.0,248.5 Q 135,246 134.5,243.5 Q 134,241 133.5,238.5 Q 133,236 132.5,233.5 Q 132,231 131.0,228.5 Q 130,226 129.5,223.5 Q 129,221 128.0,218.5 Q 127,216 126.5,213.5 Q 126,211 125.5,208.5 Q 125,206 124.5,203.5 Q 124,201 123.5,198.5 Q 123,196 122.0,193.5 Q 121,191 120.5,188.5 L 120,186" />
    <path d="M 118,184 Q 120,185 120.0,186.5 Q 120,188 120.5,189.5 Q 121,191 121.5,192.5 Q 122,194 122.5,195.5 Q 123,197 123.5,198.5 Q 124,200 124.0,201.5 Q 124,203 124.5,204.5 Q 125,206 125.5,207.5 Q 126,209 126.0,210.5 Q 126,212 126.0,213.5 Q 126,215 125.0,216.5 Q 124,218 124.0,219.5 Q 124,221 123.5,222.5 Q 123,224 122.5,225.5 Q 122,227 121.5,228.5 Q 121,230 121.0,231.5 Q 121,233 120.5,234.5 Q 120,236 119.0,237.5 Q 118,239 116.5,239.0 Q 115,239 113.5,237.5 Q 112,236 110.5,235.5 Q 109,235 107.5,234.5 Q 106,234 104.5,233.5 Q 103,233 101.5,233.0 Q 100,233 98.5,233.0 Q 97,233 95.5,233.5 Q 94,234 92.5,234.5 Q 91,235 89.5,235.5 Q 88,236 87.0,235.0 Q 86,234 86.5,232.5 Q 87,231 87.0,229.5 Q 87,228 87.0,226.5 Q 87,225 87.5,223.5 Q 88,222 88.0,220.5 Q 88,219 88.0,217.5 Q 88,216 88.5,214.5 Q 89,213 89.0,211.5 Q 89,210 89.5,208.5 Q 90,207 90.0,205.5 Q 90,204 90.0,202.5 Q 90,201 90.5,199.5 Q 91,198 91.0,196.5 Q 91,195 91.5,193.5 Q 92,192 92.0,190.5 Q 92,189 92.5,187.5 Q 93,186 94.0,185.0 Q 95,184 96.5,184.5 Q 98,185 99.5,185.0 Q 101,185 102.5,185.0 Q 104,185 105.5,185.0 Q 107,185 108.5,185.0 Q 110,185 111.5,184.5 Q 113,184 114.5,184.0 L 116,184" />
    <path d="M 203,111 Q 207,110 208.0,111.5 Q 209,113 209.5,115.0 Q 210,117 211.0,119.0 Q 212,121 212.5,123.0 Q 213,125 213.5,127.0 Q 214,129 215.0,131.0 Q 216,133 217.0,135.0 Q 218,137 219.5,139.0 Q 221,141 222.0,143.0 Q 223,145 224.0,147.0 Q 225,149 226.5,151.0 Q 228,153 229.5,155.0 Q 231,157 232.5,159.0 Q 234,161 235.5,163.0 Q 237,165 239.0,167.0 Q 241,169 243.0,170.5 Q 245,172 247.0,174.0 Q 249,176 251.0,177.0 Q 253,178 254.5,180.0 Q 256,182 254.5,183.0 Q 253,184 251.0,184.5 Q 249,185 247.0,185.5 Q 245,186 243.0,186.5 Q 241,187 239.0,187.5 Q 237,188 235.0,188.0 Q 233,188 231.0,188.5 Q 229,189 227.0,189.5 Q 225,190 223.0,190.0 Q 221,190 219.0,190.0 Q 217,190 215.0,190.5 Q 213,191 211.0,191.0 Q 209,191 207.0,191.0 Q 205,191 203.0,191.0 Q 201,191 199.0,190.5 Q 197,190 195.0,190.0 Q 193,190 191.0,189.5 Q 189,189 189.0,187.0 Q 189,185 189.0,183.0 Q 189,181 189.0,179.0 Q 189,177 189.0,175.0 Q 189,173 189.0,171.0 Q 189,169 189.0,167.0 Q 189,165 189.0,163.0 Q 189,161 189.0,159.0 Q 189,157 189.0,155.0 Q 189,153 189.0,151.0 Q 189,149 189.0,147.0 Q 189,145 189.0,143.0 Q 189,141 189.0,139.0 Q 189,137 189.0,135.0 Q 189,133 189.0,131.0 Q 189,129 189.0,127.0 Q 189,125 189.0,123.0 Q 189,121 189.0,119.0 Q 189,117 191.0,116.0 Q 193,115 195.0,114.5 Q 197,114 199.0,113.0 L 201,112" />
    <path d="M 169,111 Q 173,111 175.0,112.0 Q 177,113 179.0,113.5 Q 181,114 183.0,114.5 Q 185,115 187.0,116.0 Q 189,117 189.0,119.0 Q 189,121 189.0,123.0 Q 189,125 189.0,127.0 Q 189,129 189.0,131.0 Q 189,133 189.0,135.0 Q 189,137 189.0,139.0 Q 189,141 189.0,143.0 Q 189,145 189.0,147.0 Q 189,149 189.0,151.0 Q 189,153 189.0,155.0 Q 189,157 189.0,159.0 Q 189,161 189.0,163.0 Q 189,165 189.0,167.0 Q 189,169 189.0,171.0 Q 189,173 189.0,175.0 Q 189,177 189.0,179.0 Q 189,181 189.0,183.0 Q 189,185 189.0,187.0 Q 189,189 187.0,189.5 Q 185,190 183.0,190.0 Q 181,190 179.0,190.5 Q 177,191 175.0,191.0 Q 173,191 171.0,191.0 Q 169,191 167.0,190.5 Q 165,190 163.0,190.0 Q 161,190 159.0,190.0 Q 157,190 155.0,190.0 Q 153,190 151.0,189.5 Q 149,189 147.0,188.5 Q 145,188 143.0,188.0 Q 141,188 139.0,187.5 Q 137,187 135.0,186.5 Q 133,186 131.0,185.5 Q 129,185 127.0,184.5 Q 125,184 123.0,183.5 Q 121,183 122.5,181.0 Q 124,179 126.0,178.0 Q 128,177 130.0,175.5 Q 132,174 134.0,172.0 Q 136,170 138.0,168.0 Q 140,166 141.5,164.0 Q 143,162 144.5,160.0 Q 146,158 147.5,156.0 Q 149,154 150.5,152.0 Q 152,150 153.5,148.0 Q 155,146 156.0,144.0 Q 157,142 158.0,140.0 Q 159,138 160.0,136.0 Q 161,134 162.0,132.0 Q 163,130 163.5,128.0 Q 164,126 165.0,124.0 Q 166,122 166.5,120.0 Q 167,118 167.5,116.0 L 168,114" />
    <path d="M 163,108 Q 167,108 168.0,110.0 Q 169,112 168.5,114.0 Q 168,116 167.0,118.0 Q 166,120 165.5,122.0 Q 165,124 164.5,126.0 Q 164,128 163.0,130.0 Q 162,132 161.0,134.0 Q 160,136 159.0,138.0 Q 158,140 157.0,142.0 Q 156,144 154.5,146.0 Q 153,148 152.0,150.0 Q 151,152 149.5,154.0 Q 148,156 146.5,158.0 Q 145,160 143.5,162.0 Q 142,164 140.0,166.0 Q 138,168 136.0,170.0 Q 134,172 132.0,173.5 Q 130,175 128.0,176.5 Q 126,178 124.0,179.5 Q 122,181 120.0,182.5 Q 118,184 116.0,184.0 Q 114,184 112.0,184.5 Q 110,185 108.0,185.0 Q 106,185 104.0,185.0 Q 102,185 100.0,185.0 Q 98,185 96.0,184.5 Q 94,184 93.5,182.0 Q 93,180 92.5,178.0 Q 92,176 92.0,174.0 Q 92,172 92.5,170.0 Q 93,168 93.0,166.0 Q 93,164 93.5,162.0 Q 94,160 94.5,158.0 Q 95,156 95.5,154.0 Q 96,152 96.5,150.0 Q 97,148 98.0,146.0 Q 99,144 100.0,142.0 Q 101,140 102.5,138.0 Q 104,136 105.5,134.0 Q 107,132 109.0,130.5 Q 111,129 113.0,128.0 Q 115,127 117.0,126.5 Q 119,126 121.0,125.5 Q 123,125 125.0,124.5 Q 127,124 129.0,123.5 Q 131,123 133.0,122.5 Q 135,122 137.0,121.0 Q 139,120 141.0,119.0 Q 143,118 145.0,117.5 Q 147,117 149.0,116.0 Q 151,115 153.0,114.0 Q 155,113 157.0,111.5 L 159,110" />
    <path d="M 211,107 Q 215,107 217.0,108.5 Q 219,110 221.0,111.5 Q 223,113 225.0,114.0 Q 227,115 229.0,116.0 Q 231,117 233.0,117.5 Q 235,118 237.0,119.0 Q 239,120 241.0,121.0 Q 243,122 245.0,122.5 Q 247,123 249.0,123.5 Q 251,124 253.0,124.5 Q 255,125 257.0,125.5 Q 259,126 261.0,126.5 Q 263,127 265.0,128.0 Q 267,129 269.0,130.5 Q 271,132 272.5,134.0 Q 274,136 275.5,138.0 Q 277,140 278.0,142.0 Q 279,144 280.0,146.0 Q 281,148 281.5,150.0 Q 282,152 283.0,154.0 Q 284,156 284.0,158.0 Q 284,160 284.5,162.0 Q 285,164 285.0,166.0 Q 285,168 285.0,170.0 Q 285,172 285.0,174.0 Q 285,176 285.0,178.0 Q 285,180 284.5,182.0 Q 284,184 282.0,184.5 Q 280,185 278.0,185.0 Q 276,185 274.0,185.0 Q 272,185 270.0,185.0 Q 268,185 266.0,184.5 Q 264,184 262.0,183.5 Q 260,183 258.0,182.5 Q 256,182 254.5,180.0 Q 253,178 251.0,177.0 Q 249,176 247.0,174.0 Q 245,172 243.0,170.5 Q 241,169 239.0,167.0 Q 237,165 235.5,163.0 Q 234,161 232.5,159.0 Q 231,157 229.5,155.0 Q 228,153 226.5,151.0 Q 225,149 224.0,147.0 Q 223,145 222.0,143.0 Q 221,141 219.5,139.0 Q 218,137 217.0,135.0 Q 216,133 215.0,131.0 Q 214,129 213.5,127.0 Q 213,125 212.5,123.0 Q 212,121 211.0,119.0 Q 210,117 209.5,115.0 Q 209,113 209.0,111.0 L 209,109" />
    <path d="M 166,89 Q 169,88 170.5,88.0 Q 172,88 173.5,88.0 Q 175,88 176.5,88.0 Q 178,88 179.5,88.0 Q 181,88 182.5,88.0 Q 184,88 185.5,88.0 Q 187,88 188.0,89.0 Q 189,90 189.0,91.5 Q 189,93 189.0,94.5 Q 189,96 189.0,97.5 Q 189,99 189.0,99.5 Q 189,100 189.0,98.5 Q 189,97 189.0,95.5 Q 189,94 189.0,92.5 Q 189,91 189.5,89.5 Q 190,88 191.5,88.0 Q 193,88 194.5,88.0 Q 196,88 197.5,88.0 Q 199,88 200.5,88.0 Q 202,88 203.5,88.0 Q 205,88 206.5,88.0 Q 208,88 209.5,88.5 Q 211,89 211.0,90.5 Q 211,92 211.0,93.5 Q 211,95 211.0,96.5 Q 211,98 211.5,99.5 Q 212,101 212.5,102.5 Q 213,104 212.0,105.5 Q 211,107 210.0,108.0 Q 209,109 207.5,109.5 Q 206,110 204.5,110.5 Q 203,111 201.5,112.0 Q 200,113 198.5,113.5 Q 197,114 195.5,114.5 Q 194,115 192.5,115.5 Q 191,116 189.5,116.0 Q 188,116 186.5,115.5 Q 185,115 183.5,114.5 Q 182,114 180.5,113.5 Q 179,113 177.5,112.5 Q 176,112 174.5,111.5 Q 173,111 171.5,110.5 Q 170,110 168.5,109.0 Q 167,108 166.0,106.5 Q 165,105 165.5,103.5 Q 166,102 166.0,100.5 Q 166,99 166.0,97.5 Q 166,96 166.5,94.5 Q 167,93 166.5,91.5 L 166,90" />
    <path d="M 223,31 Q 226,31 226.5,32.5 Q 227,34 227.0,35.5 Q 227,37 227.0,38.5 Q 227,40 227.0,41.5 Q 227,43 227.0,44.5 Q 227,46 227.0,47.5 Q 227,49 226.5,50.5 Q 226,52 226.0,53.5 Q 226,55 225.5,56.5 Q 225,58 225.0,59.5 Q 225,61 224.5,62.5 Q 224,64 223.5,65.5 Q 223,67 222.5,68.5 Q 222,70 221.0,71.5 Q 220,73 219.5,74.5 Q 219,76 218.0,77.5 Q 217,79 216.0,80.5 Q 215,82 214.0,83.5 Q 213,85 212.0,86.5 Q 211,88 209.5,88.0 Q 208,88 206.5,88.0 Q 205,88 203.5,88.0 Q 202,88 200.5,88.0 Q 199,88 197.5,88.0 Q 196,88 194.5,88.0 Q 193,88 191.5,88.0 Q 190,88 189.5,86.5 Q 189,85 189.0,83.5 Q 189,82 189.0,80.5 Q 189,79 189.0,77.5 Q 189,76 189.0,74.5 Q 189,73 189.0,71.5 Q 189,70 189.0,68.5 Q 189,67 189.0,65.5 Q 189,64 189.0,62.5 Q 189,61 189.0,59.5 Q 189,58 189.0,56.5 Q 189,55 189.0,53.5 Q 189,52 189.0,50.5 Q 189,49 189.0,47.5 Q 189,46 189.0,44.5 Q 189,43 189.0,41.5 Q 189,40 189.0,38.5 Q 189,37 189.5,35.5 Q 190,34 191.5,34.0 Q 193,34 194.5,34.0 Q 196,34 197.5,34.0 Q 199,34 200.5,33.5 Q 202,33 203.5,33.0 Q 205,33 206.5,33.0 Q 208,33 209.5,32.5 Q 211,32 212.5,32.0 Q 214,32 215.5,32.0 Q 217,32 218.5,31.5 L 220,31" />
    <path d="M 152,31 Q 155,31 156.5,31.0 Q 158,31 159.5,31.5 Q 161,32 162.5,32.0 Q 164,32 165.5,32.0 Q 167,32 168.5,32.5 Q 170,33 171.5,33.0 Q 173,33 174.5,33.0 Q 176,33 177.5,33.5 Q 179,34 180.5,34.0 Q 182,34 183.5,34.0 Q 185,34 186.5,34.0 Q 188,34 188.5,35.5 Q 189,37 189.0,38.5 Q 189,40 189.0,41.5 Q 189,43 189.0,44.5 Q 189,46 189.0,47.5 Q 189,49 189.0,50.5 Q 189,52 189.0,53.5 Q 189,55 189.0,56.5 Q 189,58 189.0,59.5 Q 189,61 189.0,62.5 Q 189,64 189.0,65.5 Q 189,67 189.0,68.5 Q 189,70 189.0,71.5 Q 189,73 189.0,74.5 Q 189,76 189.0,77.5 Q 189,79 189.0,80.5 Q 189,82 189.0,83.5 Q 189,85 188.5,86.5 Q 188,88 186.5,88.0 Q 185,88 183.5,88.0 Q 182,88 180.5,88.0 Q 179,88 177.5,88.0 Q 176,88 174.5,88.0 Q 173,88 171.5,88.0 Q 170,88 168.5,88.0 Q 167,88 166.0,86.5 Q 165,85 164.0,83.5 Q 163,82 162.0,80.5 Q 161,79 160.0,77.5 Q 159,76 158.0,74.5 Q 157,73 156.5,71.5 Q 156,70 155.5,68.5 Q 155,67 154.5,65.5 Q 154,64 154.0,62.5 Q 154,61 153.5,59.5 Q 153,58 152.5,56.5 Q 152,55 152.0,53.5 Q 152,52 151.5,50.5 Q 151,49 151.0,47.5 Q 151,46 151.0,44.5 Q 151,43 151.0,41.5 Q 151,40 151.0,38.5 Q 151,37 151.5,35.5 L 152,34" />
    <path d="M 189,4 Q 191,3 192.0,3.0 Q 193,3 194.0,3.0 Q 195,3 196.0,3.0 Q 197,3 198.0,3.5 Q 199,4 200.0,4.0 Q 201,4 202.0,4.5 Q 203,5 204.0,5.0 Q 205,5 206.0,5.5 Q 207,6 208.0,6.5 Q 209,7 210.0,7.5 Q 211,8 212.0,9.0 Q 213,10 214.0,11.0 Q 215,12 216.0,13.0 Q 217,14 218.0,15.0 Q 219,16 219.5,17.0 Q 220,18 221.0,19.0 Q 222,20 222.5,21.0 Q 223,22 223.0,23.0 Q 223,24 223.5,25.0 Q 224,26 224.5,27.0 Q 225,28 224.5,29.0 Q 224,30 223.0,30.5 Q 222,31 221.0,31.0 Q 220,31 219.0,31.5 Q 218,32 217.0,32.0 Q 216,32 215.0,32.0 Q 214,32 213.0,32.0 Q 212,32 211.0,32.0 Q 210,32 209.0,32.5 Q 208,33 207.0,33.0 Q 206,33 205.0,33.0 Q 204,33 203.0,33.0 Q 202,33 201.0,33.5 Q 200,34 199.0,34.0 Q 198,34 197.0,34.0 Q 196,34 195.0,34.0 Q 194,34 193.0,34.0 Q 192,34 191.0,34.0 Q 190,34 189.5,33.0 Q 189,32 189.0,31.0 Q 189,30 189.0,29.0 Q 189,28 189.0,27.0 Q 189,26 189.0,25.0 Q 189,24 189.0,23.0 Q 189,22 189.0,21.0 Q 189,20 189.0,19.0 Q 189,18 189.0,17.0 Q 189,16 189.0,15.0 Q 189,14 189.0,13.0 Q 189,12 189.0,11.0 Q 189,10 189.0,9.0 Q 189,8 189.0,7.0 L 189,6" />
    <path d="M 178,4 Q 180,3 181.0,3.0 Q 182,3 183.0,3.0 Q 184,3 185.0,3.0 Q 186,3 187.0,3.0 Q 188,3 188.5,4.0 Q 189,5 189.0,6.0 Q 189,7 189.0,8.0 Q 189,9 189.0,10.0 Q 189,11 189.0,12.0 Q 189,13 189.0,14.0 Q 189,15 189.0,16.0 Q 189,17 189.0,18.0 Q 189,19 189.0,20.0 Q 189,21 189.0,22.0 Q 189,23 189.0,24.0 Q 189,25 189.0,26.0 Q 189,27 189.0,28.0 Q 189,29 189.0,30.0 Q 189,31 189.0,32.0 Q 189,33 188.0,33.5 Q 187,34 186.0,34.0 Q 185,34 184.0,34.0 Q 183,34 182.0,34.0 Q 181,34 180.0,34.0 Q 179,34 178.0,33.5 Q 177,33 176.0,33.0 Q 175,33 174.0,33.0 Q 173,33 172.0,33.0 Q 171,33 170.0,33.0 Q 169,33 168.0,32.5 Q 167,32 166.0,32.0 Q 165,32 164.0,32.0 Q 163,32 162.0,32.0 Q 161,32 160.0,31.5 Q 159,31 158.0,31.0 Q 157,31 156.0,31.0 Q 155,31 154.0,30.0 Q 153,29 153.5,28.0 Q 154,27 154.0,26.0 Q 154,25 154.5,24.0 Q 155,23 155.5,22.0 Q 156,21 156.5,20.0 Q 157,19 157.5,18.0 Q 158,17 159.0,16.0 Q 160,15 161.0,14.0 Q 162,13 163.0,12.0 Q 164,11 165.0,10.0 Q 166,9 167.0,8.5 Q 168,8 169.0,7.5 Q 170,7 171.0,6.5 Q 172,6 173.0,5.5 Q 174,5 175.0,5.0 L 176,5" />
    <path d="M 179,3 Q 152,55 154.5,83.5 Q 157,112 128.5,126.5 Q 100,141 95.5,170.5 Q 91,200 84.0,229.5 Q 77,259 69.5,288.5 Q 62,318 47.5,337.0 Q 33,356 37.5,377.0 Q 42,398 59.0,381.5 Q 76,365 86.5,335.5 Q 97,306 106.5,276.5 Q 116,247 125.0,244.5 Q 134,242 129.5,271.5 Q 125,301 120.5,330.5 Q 116,360 119.0,389.5 Q 122,419 129.0,448.5 Q 136,478 134.0,507.5 Q 132,537 137.5,566.5 Q 143,596 147.0,625.5 Q 151,655 165.0,664.5 Q 179,674 176.5,644.5 Q 174,615 176.0,585.5 Q 178,556 178.5,526.5 Q 179,497 180.0,467.5 Q 181,438 183.5,408.5 Q 186,379 190.5,399.5 Q 195,420 196.0,449.5 Q 197,479 199.5,508.5 Q 202,538 203.0,567.5 Q 204,597 202.5,626.5 Q 201,656 219.5,664.0 Q 238,672 234.0,643.0 Q 230,614 237.5,584.5 Q 245,555 243.5,525.5 Q 242,496 247.5,466.5 Q 253,437 257.5,407.5 Q 262,378 259.0,348.5 Q 256,319 249.0,289.5 Q 242,260 249.5,244.5 Q 257,229 264.5,258.5 Q 272,288 286.0,317.5 Q 300,347 311.5,371.5 Q 323,396 330.0,377.5 Q 337,359 330.5,345.0 Q 324,331 314.5,302.5 Q 305,274 297.5,244.5 Q 290,215 287.0,185.5 Q 284,156 260.0,137.5 Q 236,119 229.0,94.0 Q 222,69 217.5,39.5 L 213,10" />
  </g>
</svg>
