<?xml version="1.0" encoding="UTF-8"?>
<svg xmlns="http://www.w3.org/2000/svg" 
     width="1024" height="1024" 
     viewBox="0 0 1024 1024">
  <title>Body Outline - Center Line</title>
  <g id="cut-lines" stroke="#000000" stroke-width="2" fill="none" stroke-linecap="round" stroke-linejoin="round">
    <path d="M 514,612 L 512,620 L 510,617 L 512,700 L 506,709 L 485,721 L 468,725 L 448,725 L 426,718 L 448,725 L 468,725 L 485,721 L 506,711 L 508,763 L 499,856 L 508,763 L 505,710 L 512,700 L 517,706 L 516,771 L 525,856 L 516,771 L 517,711 L 521,710 L 539,721 L 555,725 L 577,725 L 596,718 L 577,725 L 555,725 L 539,721 L 518,709 L 512,700 L 511,621 L 514,613" />
    <path d="M 556,559 L 538,575 L 557,559" />
    <path d="M 466,559 L 474,564 L 484,575 L 467,560" />
    <path d="M 664,509 L 670,518 L 677,520 L 670,518 L 664,510" />
    <path d="M 360,509 L 353,519 L 348,519 L 353,519 L 360,510" />
    <path d="M 554,333 L 559,352 L 568,370 L 578,379 L 566,367 L 555,334" />
    <path d="M 469,333 L 460,366 L 447,380 L 460,366 L 469,334" />
    <path d="M 501,46 L 476,57 L 461,74 L 455,98 L 457,120 L 448,124 L 451,150 L 455,158 L 464,164 L 468,183 L 473,191 L 468,216 L 457,225 L 406,249 L 362,265 L 348,278 L 338,296 L 330,326 L 330,372 L 322,410 L 317,467 L 293,530 L 272,629 L 259,663 L 231,681 L 197,718 L 201,724 L 210,723 L 229,708 L 233,708 L 232,724 L 222,754 L 218,779 L 221,782 L 227,780 L 240,745 L 245,739 L 237,784 L 239,796 L 244,797 L 248,793 L 261,743 L 263,751 L 260,791 L 266,793 L 270,788 L 279,740 L 282,745 L 282,773 L 286,779 L 291,777 L 295,734 L 303,701 L 303,677 L 314,649 L 362,557 L 374,519 L 378,485 L 392,430 L 395,427 L 405,466 L 409,507 L 397,553 L 395,573 L 380,626 L 374,669 L 373,704 L 380,780 L 396,857 L 378,766 L 373,690 L 380,626 L 407,519 L 409,495 L 385,368 L 377,349 L 385,368 L 395,426 L 378,485 L 374,519 L 362,557 L 314,649 L 303,677 L 303,701 L 295,734 L 293,770 L 282,773 L 282,745 L 279,740 L 272,781 L 268,789 L 267,784 L 260,781 L 263,741 L 259,747 L 249,790 L 247,791 L 243,785 L 238,789 L 246,736 L 240,745 L 228,777 L 225,772 L 219,770 L 232,724 L 233,703 L 233,706 L 216,720 L 206,724 L 199,722 L 205,717 L 208,707 L 231,681 L 259,663 L 272,629 L 293,530 L 316,472 L 322,410 L 330,372 L 330,326 L 336,301 L 345,282 L 367,262 L 406,249 L 462,222 L 470,212 L 473,179 L 473,187 L 469,186 L 464,158 L 463,163 L 459,162 L 451,150 L 448,124 L 450,121 L 456,121 L 458,127 L 455,98 L 461,74 L 476,57 L 493,48 L 525,46 L 538,50 L 557,64 L 566,79 L 569,91 L 567,127 L 569,122 L 575,121 L 577,137 L 569,160 L 563,162 L 562,157 L 555,187 L 552,187 L 552,177 L 552,200 L 557,216 L 580,231 L 662,265 L 675,277 L 685,295 L 694,327 L 694,374 L 702,413 L 707,470 L 732,536 L 743,599 L 762,660 L 794,682 L 817,709 L 818,717 L 826,721 L 822,724 L 813,723 L 791,707 L 790,703 L 792,729 L 805,772 L 798,772 L 795,777 L 778,736 L 777,744 L 785,788 L 773,788 L 761,743 L 759,745 L 762,784 L 758,782 L 756,789 L 753,789 L 743,739 L 740,772 L 730,772 L 729,739 L 721,707 L 720,676 L 711,653 L 661,556 L 649,518 L 645,483 L 629,427 L 638,369 L 646,349 L 638,369 L 615,490 L 616,516 L 643,623 L 650,675 L 647,755 L 628,855 L 644,778 L 650,721 L 650,675 L 646,640 L 615,510 L 617,475 L 628,427 L 632,432 L 646,488 L 649,518 L 661,556 L 711,653 L 720,676 L 720,699 L 729,739 L 732,776 L 737,779 L 740,775 L 741,742 L 744,741 L 753,789 L 757,793 L 762,793 L 762,746 L 773,788 L 779,797 L 783,797 L 786,786 L 778,739 L 782,743 L 793,775 L 799,782 L 805,779 L 801,755 L 792,729 L 790,708 L 795,708 L 813,723 L 822,724 L 827,719 L 794,682 L 762,660 L 743,599 L 732,536 L 708,475 L 702,413 L 694,374 L 694,327 L 685,295 L 675,277 L 662,265 L 580,231 L 557,216 L 553,207 L 552,189 L 556,185 L 561,163 L 569,160 L 577,137 L 577,123 L 568,121 L 569,91 L 566,79 L 557,64 L 544,53 L 525,46 L 502,46" />
  </g>
</svg>