<?xml version="1.0" encoding="UTF-8"?>
<svg id="_图层_1" data-name="图层 1" xmlns="http://www.w3.org/2000/svg" viewBox="0 0 387 693">
  <defs>
    <style>
      .cls-1 {
        fill: #fff;
      }
    </style>
  </defs>
  <path class="cls-1" d="M387,0v693H0V0h387ZM214.62,9.4c-16.5-12.72-46.59-9.15-57.82,8.9-9.07,14.58-7.39,37.19-1.28,52.67,1.86,4.7,10.09,14.6,10.46,16.54.76,4.01,0,15.13-2.01,18.7-.95,1.69-4.57,2.68-6.23,3.82-14.05,9.57-24.11,10.66-39.75,15.46-18.23,5.59-26.59,30.78-26.92,48.17-.38,19.68-1.89,42-5.33,61.58-1.96,11.14-9.35,21.8-12.46,33.54-2.85,10.76-9.34,56.21-17.64,60.81-3.4,1.88-7.63,2.45-11.58,4.96-5.5,3.51-9.58,9.61-14.42,14.08-3.21,2.97-9.23,4-7.65,10.35,8.01,1.14,13.07-1.27,18.99-6,.18,14.29-4.37,28.46-4.9,42.62-.22,5.85,2.67,3.5,4.86,4.88,1.04.66,1.27,2.56,2,3.01.46.28,9.48.48,10.57-.5,1.41-1.28,1.87-5.64,3.99-7l1.51,4.99c4.79,3.27,10.83-15.37,12.04-18.45,2.52-6.41,8.34-19.95,8.94-26.06.72-7.27-.95-11.48,1.98-19.02,6.6-16.94,21.29-34.92,28.07-52.93,5.57-14.8,7.55-33.12,11.9-49.1,1.65-6.06,3.03-12.25,4.07-18.44.3-.31,1.23.59,1.49,1,1.95,3.04,6.94,28.8,7.37,33.63,1.78,20.25-6.81,35.39-11.41,54.34-10.65,43.92-10.74,76.12-1.2,120.27,3.18,14.69,8.61,29.15,11.43,43.57,5.89,30.04-5.38,55.66-1.56,84.56,3.21,24.29,20.17,64.11,19.51,85.34-.1,3.14-2.53,5.55-2.55,7.78-.03,2.58,2.32,4.1,1.48,7.51-1.87,7.56-6.96,9.59-10.04,14.01-7.57,10.84,19.08,8.52,23.91,9.05,1.93.21,3.56,1.71,6.03,1.98,16.8,1.87,8.87-13.15,8.48-22.49-.27-6.4,2.39-11.35,2.06-17.01-.45-7.69-4.5-17.87-5.06-26.99-1.3-21.18,5.31-41.9,4.03-62.02-.61-9.61-4.25-21.35-4.06-31.03.15-7.49,3.76-16.49,4.95-24.11,3.73-23.83,1.55-48.69,3.13-72.87l4.99-50.51c2.34-.14,1.77-.33,2,1.48.36,2.81-.26,6.07,0,9.01,2.87,31.28,3.39,59.03,4.95,90.05.86,17.07,7.98,37.37,7.03,52.95-.37,6.05-2.55,12.95-2.97,19.03-1.66,23.88,4.66,47.17,3.03,71.03-.5,7.25-3.41,14.36-4.03,20.97-.72,7.7,1.52,15.19,1.03,23.03-.49,7.89-6.82,19.83,6.46,19.54,3.48-.08,6.6-1.78,10.01-2.07,4.53-.38,23.04,1.15,23.54-5.56.3-4-9.5-9.74-10.82-17.19-.69-3.88.83-5.87.71-8.69-.16-3.74-2.39-6.37-1.93-12.06,1.99-24.5,15.62-53.44,18.85-79.14,3.32-26.36-5.36-52.3-2.85-78.85,1.32-13.95,9.45-33.61,12.67-48.33,9.84-45,9.65-80.15-1.56-124.82-4.26-16.98-12.23-31.93-11.12-49.86.75-12.14,5.44-24.68,8-36.51l8.91,29.57c.46,35.19,22.59,59.83,35.56,89.44,4.11,9.38,1.93,19.96,5.22,29.78,1.27,3.78,3.44,4.99,4.53,7.47,1.95,4.44,2.7,11.61,5,17,.91,2.12,4.66,10.1,6.36,10.64l2.93-.89.49-6.02,5.65,10.07,11.34-1.06v-4.01s4.53.04,4.53.04l-4.53-46.04c6.2,3.83,10.33,7.46,18.32,6.04,4.85-5.67-5.92-9.43-9.83-13.05-2.68-2.48-4.68-6.26-8.03-8.97-4.4-3.57-13.55-6.39-16.04-8.96-10.13-10.44-13.03-49.62-17.93-65.07-2.4-7.56-8.9-16.92-10.28-23.72-4.91-24.21-5.12-49.26-7.36-73.64-1.2-13.05-8.44-32.96-21.18-38.82-5.53-2.54-12.77-2.75-18.49-4.51-6.23-1.92-15.29-5.84-21.07-8.93s-12.18-6.11-13.04-12.96c-2.06-16.34,3.6-14.33,9.14-25.69,9.28-19.05,10.71-51.21-7.6-65.32Z"/>
  <path d="M214.62,9.4c18.3,14.11,16.88,46.27,7.6,65.32-5.54,11.36-11.2,9.35-9.14,25.69.86,6.86,7.2,9.86,13.04,12.96s14.85,7.01,21.07,8.93c5.72,1.76,12.97,1.96,18.49,4.51,12.74,5.86,19.98,25.77,21.18,38.82,2.24,24.38,2.45,49.43,7.36,73.64,1.38,6.81,7.88,16.17,10.28,23.72,4.9,15.45,7.79,54.63,17.93,65.07,2.49,2.57,11.64,5.39,16.04,8.96,3.35,2.71,5.35,6.49,8.03,8.97,3.91,3.62,14.68,7.38,9.83,13.05-7.99,1.42-12.12-2.21-18.32-6.04l4.53,46.04-4.53-.04v4.01s-11.35,1.06-11.35,1.06l-5.65-10.07-.49,6.02-2.93.89c-1.7-.54-5.46-8.52-6.36-10.64-2.3-5.39-3.05-12.56-5-17-1.09-2.48-3.27-3.68-4.53-7.47-3.28-9.82-1.11-20.4-5.22-29.78-12.97-29.61-35.1-54.25-35.56-89.44l-8.91-29.57c-2.56,11.83-7.25,24.37-8,36.51-1.11,17.93,6.86,32.87,11.12,49.86,11.21,44.67,11.39,79.82,1.56,124.82-3.22,14.72-11.35,34.38-12.67,48.33-2.51,26.54,6.17,52.49,2.85,78.85-3.24,25.7-16.87,54.64-18.85,79.14-.46,5.69,1.77,8.32,1.93,12.06.12,2.81-1.4,4.81-.71,8.69,1.32,7.45,11.11,13.19,10.82,17.19-.5,6.71-19.01,5.18-23.54,5.56-3.42.29-6.54,1.99-10.01,2.07-13.27.3-6.95-11.64-6.46-19.54.49-7.84-1.75-15.33-1.03-23.03.62-6.61,3.54-13.72,4.03-20.97,1.63-23.85-4.68-47.15-3.03-71.03.42-6.07,2.6-12.98,2.97-19.03.95-15.57-6.17-35.88-7.03-52.95-1.56-31.02-2.08-58.77-4.95-90.05-.27-2.94.35-6.2,0-9.01-.23-1.81.34-1.62-2-1.48l-4.99,50.51c-1.58,24.18.6,49.04-3.13,72.87-1.19,7.62-4.8,16.62-4.95,24.11-.2,9.68,3.44,21.41,4.06,31.03,1.28,20.12-5.33,40.84-4.03,62.02.56,9.12,4.61,19.3,5.06,26.99.33,5.66-2.33,10.61-2.06,17.01.39,9.35,8.32,24.36-8.48,22.49-2.47-.27-4.1-1.77-6.03-1.98-4.83-.53-31.48,1.8-23.91-9.05,3.08-4.42,8.18-6.45,10.04-14.01.84-3.41-1.51-4.94-1.48-7.51.03-2.23,2.46-4.65,2.55-7.78.66-21.23-16.29-61.05-19.51-85.34-3.82-28.9,7.45-54.52,1.56-84.56-2.82-14.42-8.26-28.88-11.43-43.57-9.54-44.15-9.45-76.35,1.2-120.27,4.59-18.94,13.19-34.09,11.41-54.34-.42-4.83-5.42-30.59-7.37-33.63-.26-.4-1.19-1.3-1.49-1-1.04,6.19-2.42,12.38-4.07,18.44-4.35,15.98-6.33,34.3-11.9,49.1-6.78,18.02-21.47,36-28.07,52.93-2.93,7.53-1.27,11.75-1.98,19.02-.6,6.11-6.42,19.64-8.94,26.06-1.21,3.08-7.24,21.72-12.04,18.45l-1.51-4.99c-2.12,1.37-2.58,5.73-3.99,7-1.09.99-10.11.79-10.57.5-.72-.44-.96-2.35-2-3.01-2.19-1.39-5.08.97-4.86-4.88.53-14.17,5.08-28.33,4.9-42.62-5.93,4.73-10.99,7.14-18.99,6-1.57-6.35,4.44-7.39,7.65-10.35,4.84-4.46,8.92-10.57,14.42-14.08,3.95-2.52,8.18-3.08,11.58-4.96,8.31-4.6,14.79-50.05,17.64-60.81,3.11-11.74,10.5-22.4,12.46-33.54,3.44-19.58,4.95-41.9,5.33-61.58.33-17.39,8.69-42.58,26.92-48.17,15.64-4.8,25.7-5.9,39.75-15.46,1.66-1.13,5.27-2.13,6.23-3.82,2.01-3.57,2.77-14.69,2.01-18.7-.37-1.94-8.6-11.84-10.46-16.54-6.11-15.48-7.79-38.09,1.28-52.67C168.04.25,198.12-3.32,214.62,9.4ZM189,5c-14.4-1.02-25.8,5.65-32.18,18.32-.89,1.77-1.78,3.03-1.85,5.18-.08,2.29.21,1.12,1.51,1.52,4.45,1.4,27.42,4.91,30.86,3.81l1.66-1.34V5ZM191,5v29c9.96-.55,21.87-1.51,31.49-4.02,1.37-.36,1.63.82,1.54-1.49-.47-12.69-20.68-26.07-33.03-23.49ZM188,88c-.32-.98,1-2.17,1-2.5v-49c-.63-.99-1.38-1.29-2.5-1.5-5.78-1.06-15.27-.16-21.9-1.1-3.42-.49-7.28-1.84-10.59-2.9-3.02,17.58.39,36.96,11.18,51.31,1.71,2.27,3.25,5.69,6.31,5.69h16.5ZM191,88h15.5c7.24,0,14.63-17.26,16.51-23.49,3.28-10.81,4.07-22.42,1.97-33.51-3.14,1.93-6.98,2.39-10.61,2.87-6.34.85-15.21.14-20.84,1.15-1.3.23-2.3.79-3.01,1.92l.48,51.05ZM189,90l-20.02-.54c-1.96,1.34.16,4.48-.04,6.88-.21,2.54-2.03,7.22-1.88,9.26.2,2.63,13.9,8.35,16.88,8.96,2.5.51,5.02.69,7.57.45,3.66-.35,20.36-6.99,20.45-10.41.1-4.16-2.03-10.74-.96-15.59-3.59,2.53-19.31-1.36-20.03,1.66-.02,2.91.21,5.8-.09,8.71-.12,1.14-.45,5.51-1.87,5.62v-15ZM146.62,157.64c6.18-8.18,13.11-20.1,16.87-29.65,1.68-4.27,6.5-15.92,3.04-19.08-.88-1.07-1.24-.6-2.21-.17-3.02,1.35-7.64,5.65-11.45,7.64-6.21,3.23-15.96,7.59-22.63,9.37-4.25,1.14-8.77.65-13.49,2.51-15.42,6.1-21.76,28.1-22.75,43.25-.57,8.83-1.42,12.7,8.44,13.52,17.42,1.45,34.33-14.39,44.17-27.4ZM272.41,135.59c-9.57-10.48-19.77-8.65-32.39-13.11-5.56-1.96-12.46-5.45-17.69-8.31-2.23-1.22-10.93-9.39-12.27-4.55-.25.91,2.33,9.17,2.9,10.91,8.29,25.22,35.66,68.58,66.59,64.52,6.95-.91,5.71-8.13,5.44-13.54-.61-12.11-4.32-26.89-12.57-35.92ZM209,111l-17.87,7.63.31,69.43c20.36,4.83,43.4.15,63.58-4.54,2.81-1.65-4.53-4.7-5.52-5.52-19.67-16.06-36.62-41.71-40.5-67.01ZM188.87,118.13l-18.86-6.14c-4.1,22.79-18.63,46.74-35.8,61.95-2.5,2.22-5.58,3.71-7.81,5.45-.39.3-4.08,3.09-2.41,4.12,2.11,1.29,22.69,5.03,26.52,5.48,8.46.99,20.58,1.56,29.04,1.05,2.81-.17,5.52-.6,8.24-1.26l1.09-70.66ZM117.99,240l7.02-30.52-5.48-23.51c-1.43-2.2-6.63.69-9.13.93-5.16.48-10.35.16-15.39-.9l-6.99,50c10.79-6.35,20.93-4.11,29.98,4ZM191,270c16.94.35,34.46-.32,50.54-5.96.28-9.69,1.07-18.57,2.94-28.06,2.66-13.5,12.34-37.57,12.55-49.46.04-2,.35-1.52-1.05-1.05-4.39,1.48-9.21,2.52-13.77,3.24-16.94,2.67-34.11,4.92-51.21,2.29v79ZM285,186c-8.73,1.91-16.39.96-24.91-.92-.85,7.45-6.08,18.31-6.08,25.42,0,7.98,6.35,20.96,7.01,29.5,8.79-8.87,18.99-8.43,29.98-4l-6-50ZM189,191c-9.28,1.19-20.09,1.64-29.48.98-11.4-.8-23.91-4.47-35.13-5.88-.89-.11-2.35-.55-2.4.42,5.07,25.69,16.5,51.1,15.42,77.52,2.67,3.84,44.83,7.05,51.59,5.97v-79ZM113.87,256.86c-.25-7.68,5.95-14.15-2.16-19.07-5.42-3.28-19.58-4.34-23.67.74-.48.6-5.89,13.2-6.02,14.09-.54,3.48,10.52,6.86,13.58,7.28,6.96.97,11.84-1.34,18.28-3.05ZM274.76,235.26c-11.27,1.44-13.33,6.67-10.48,16.96,2.06,7.43,11.29,8.42,18.21,7.77,2.48-.23,13-3.27,14.07-4.98.91-1.44-4.77-15.81-5.57-16.5-2.9-2.49-12.33-3.74-16.23-3.25ZM113.99,259c-11.75,4.95-23.29,3.76-33.98-3l-13.01,55.99c7.44-.41,16.49,1.18,21.52,7h1.48c8.78-19.62,21.29-37.87,24-59.99ZM312,312l-13.02-56c-10.51,7.41-22.19,6.78-33.98,3.01,3.69,21.84,14.22,40.55,24.99,59.51l9.23-4.79,12.78-1.73ZM189,312v-36.5c0-.28-1.03-2.33-1.69-2.53l-50.31-5.97-7.02,24.49c8.59.28,11.17,7.56,16.52,11.51,10.22,7.54,30.06,8.35,42.49,9.01ZM191,273v39c11.66-.58,32.99-1.9,42.53-8.97,4.62-3.42,6.92-11.1,15.5-11.56l-7.65-24.4c-16.53,3.56-33.45,5.68-50.38,5.93ZM117,374c29.23-5.91,41.43-41.42,28.48-66.98-2.81-5.55-8.53-12.14-15.01-13.01-2.15-.29-1.15.3-1.56,1.39-1.01,2.68-1.72,6.63-2.44,9.56-5.5,22.46-9.23,45.91-9.46,69.04ZM249.9,294.1c-6.71-.73-13.45,7.69-16.09,13.21-11.98,25.04-.34,60.61,28.19,66.69.69-27.15-5.94-53.71-12.09-79.91ZM184.75,380.75c6.87-21.14,3.9-43.83,3.82-65.82-9.58-1.63-19.47-1.72-28.96-4.04-2.05-.5-10.9-4.46-11.61-3.88,8.78,18.11,5.22,43.97-9.47,58.02-5.3,5.07-12.04,7.44-17.53,11.96,20.2,6.8,43.85,16.15,63.75,3.76ZM230.99,307c-9.54,3.4-19.42,5.71-29.51,6.98-2.6.33-10.73-1.11-11.37,1.59,2.96,21.57-2.26,44.05,4.14,65.16,20.12,11.97,43.46,3.28,63.74-3.75-5.97-4.75-12.63-6.68-17.92-12.79-13.94-16.07-16.93-37.62-9.08-57.19ZM76.75,342.74c3.41-3.29,7.46-16.74,10.97-21.26-5.14-7.17-13.29-6.2-21.07-7.38-2.04.56-3.75,7.89-4.78,10.27-1.29,3.01-4.58,5.12-3.48,8.64.41,1.32,8.65,9.7,9.85,10.23,2.28,1,6.67,1.26,8.51-.51ZM302.21,341.77c5.92,3.41,14.5-6.16,17.39-10.74.37-1.34-5.92-16.44-7.27-16.89-3.43-1.14-19.13,2.32-20.19,6.57-.41,1.65,8.76,20.3,10.07,21.06ZM55.9,332.07c-.45-.32-6.44,2.18-7.57,2.75-10.19,5.12-14.12,15.63-24.32,20.69-.67,2.76,4.41,2.18,5.7,1.69,4.83-1.83,8.16-7.31,13.29-8.2l-5.01,47.48c1.31,1.7,2.72-.7,3.23-1.77,2.7-5.65,2.46-14.14,4.7-19.3.66-1.51,1.09-2.79,3.08-2.41l-4.99,27.99,7.31-.14c3.52-1.84,10.03-23.7,12.19-23.84,1.99-.13.94,2.84.78,3.75-.94,5.24-1.73,10.61-3.29,15.73,3.41-.83,5.22-7.47,6.29-10.71,2.4-7.21,3.55-10.65,6.49-17.51,1.03-2.41,4.58-19.97,4.18-21.67-.5-2.1-5.55-.29-8.22-.82-5.37-1.06-11.5-8.92-13.84-13.71ZM338.43,340.58c-4.94-4.13-10.12-7.33-16.77-8.65-4.49,6.7-11.62,15.59-20.65,12.08,1.38,6.9,1.24,14.27,3.48,21.01,1.04,3.12,3.14,5.26,4.02,7.98,2.56,7.92,4.05,16.33,7.51,24,1.73.04,2.14.57,1.91-1.4-.54-4.63-3.37-12.02-2.96-16.08.14-1.41.66-2.89,2.02-1.51.69,2.96,9.34,22.87,10.6,23.07,2.75.44,4.46-3.62,7.4-.08.9-9.65-5.37-18.23-3.98-28,4.24,4.69,3.56,12.54,5.8,18.68.55,1.5,1.97,6.05,4.18,5.31l-4.99-47.99c6.55,2.51,11.27,9.6,18.99,7.99.08-3.65-4.34-4.14-6.5-5.99-3.68-3.17-6.26-7.23-10.07-10.42ZM184.99,384c-21.37,10.22-46.97,3.3-66.98-7,.8,21.59,5.19,43.28,10.28,64.21,2.88,11.87,8.38,23.33,8.72,35.78,4.07-1.05,7.37-4.06,11.74-4.75,11.13-1.76,21.35,1.15,31.25,5.75,2.06-17.42.04-35.08.96-52.54.71-13.51,3.99-27.73,4.04-41.45ZM260.99,378c-15.75,6.09-35.25,13.17-52.41,10.91-2.65-.35-14.05-5.47-14.58-4.91,4.63,31.52,3.5,63.27,5,94.99,8.41-5.87,22.12-8.64,32.26-6.76,2.11.39,10.29,5.15,10.73,4.76,6.24-32.96,18.59-64.92,19-98.99ZM179.86,481.14c-13.22-7.22-28.28-10.98-41.69-1.98-.37,12.28.47,24.63-2.09,36.71,10.79,7.14,24.32,9.69,36.49,4.2l1.24-1.76,6.06-37.16ZM239.74,478.25c-.8-.83-7.99-3.75-9.48-4.01-7.23-1.24-17.46.51-24.24,3.28-7.92,3.24-6.59,4.94-5.89,12.85l5.84,29.15c11.89,5.87,26.4,4.39,36.81-3.73.94-1.6-1.58-15.95-1.82-19.25-.3-4.09,1.15-15.84-1.21-18.29ZM173.99,522c-12.1,5.35-27.37,4.06-37.98-4-.66.5-1.96,14.14-2.05,16.46-.83,20.09,4.84,41.67,10.09,60.99.4,1.49,2.76,9.54,3.45,9.53,7.41-5.12,17.83-6.22,26.5-3.98-1.16-12.91,2.49-25.71,3.05-38.45.62-13.88-2.98-26.74-3.05-40.54ZM243.99,518.01c-.73-.82-5.42,3.13-6.76,3.73-10.71,4.8-21.41,4.27-32.23.27,1.27,9.05-2.34,17.84-2.99,26.51-1.29,17.08,3.86,35.28,3.99,52.48l11.48-.98,15.01,3.98c4.34-18.14,11.6-37.83,12.55-56.46.5-9.9-.84-19.69-1.05-29.54ZM172.9,603.1c-8.77-3.72-16.38.96-24.82,2.97l4.09,22.76c4.38,2.82,22.25,4.14,22.84-2.34l-2.11-23.38ZM230.88,606.11c-8.37-2.32-16.21-7.13-24.76-2.99-.43,3.1.12,6.26-.13,9.38-.32,3.85-2.06,10.65-1.91,14.08.26,5.86,18.16,5.42,21.93,2.93l4.88-23.4ZM170.5,633c-5.03.69-11.3-.5-16.5,0,1.79,4.94-2.02,10.94-2.05,14.47-.02,2.65,1.92,4.34,1.38,7.31-.45,2.48-3.94,8.26-5.51,10.54-1.06,1.55-6.88,6.5-5.82,7.67,3.12-.51,5.06,2.5,7.54,2.97,4.38.83,10.4-.55,14.99.01,4.07.5,8.38,4.14,12.89.96,3.9-2.75-1.35-14.51-1.49-19.42-.25-8.68,4.77-17.3.05-26.51-.94-.69-4.48,1.87-5.49,2ZM225,633h-16.5c-.55,0-3.54-2.95-5.47-1.98-4.3,8.71-.29,16.06.01,24.44.24,6.53-3.08,13.52-2.02,19.02,1.36,7.04,9.22,1.97,12.52,1.58,4.75-.55,10.33.62,14.89-.11.69-.11,8.27-2.61,8.56-2.96,1.74-2.08-3.92-4.99-5.43-7.05-1.1-1.49-5.07-9.13-5.37-10.68-.67-3.52.97-5.68.77-8.64-.26-3.76-3.49-8.78-1.97-13.61Z"/>
  <path class="cls-1" d="M260.99,378c-.42,34.08-12.77,66.03-19,98.99-.44.39-8.62-4.37-10.73-4.76-10.14-1.88-23.85.89-32.26,6.76-1.51-31.72-.37-63.48-5-94.99.53-.56,11.93,4.56,14.58,4.91,17.16,2.26,36.66-4.82,52.41-10.91Z"/>
  <path class="cls-1" d="M184.99,384c-.04,13.72-3.32,27.94-4.04,41.45-.92,17.45,1.1,35.12-.96,52.54-9.9-4.6-20.12-7.51-31.25-5.75-4.37.69-7.66,3.7-11.74,4.75-.34-12.45-5.83-23.91-8.72-35.78-5.09-20.94-9.48-42.62-10.28-64.21,20.01,10.3,45.61,17.22,66.98,7Z"/>
  <path class="cls-1" d="M189,191v79c-6.77,1.08-48.92-2.13-51.59-5.97,1.08-26.42-10.35-51.83-15.42-77.52.06-.96,1.52-.53,2.4-.42,11.22,1.42,23.72,5.09,35.13,5.88,9.4.66,20.21.21,29.48-.98Z"/>
  <path class="cls-1" d="M191,270v-79c17.1,2.63,34.27.38,51.21-2.29,4.57-.72,9.39-1.76,13.77-3.24,1.4-.47,1.08-.96,1.05,1.05-.21,11.9-9.89,35.96-12.55,49.46-1.87,9.5-2.66,18.38-2.94,28.06-16.08,5.64-33.6,6.31-50.54,5.96Z"/>
  <path class="cls-1" d="M184.75,380.75c-19.9,12.39-43.54,3.04-63.75-3.76,5.49-4.52,12.22-6.89,17.53-11.96,14.69-14.04,18.25-39.91,9.47-58.02.71-.57,9.56,3.38,11.61,3.88,9.48,2.33,19.37,2.42,28.96,4.04.08,21.99,3.05,44.67-3.82,65.82Z"/>
  <path class="cls-1" d="M230.99,307c-7.85,19.57-4.86,41.12,9.08,57.19,5.3,6.11,11.96,8.04,17.92,12.79-20.28,7.03-43.62,15.73-63.74,3.75-6.4-21.12-1.19-43.59-4.14-65.16.64-2.7,8.77-1.27,11.37-1.59,10.09-1.27,19.97-3.58,29.51-6.98Z"/>
  <path class="cls-1" d="M272.41,135.59c8.25,9.04,11.96,23.81,12.57,35.92.27,5.41,1.51,12.63-5.44,13.54-30.93,4.06-58.3-39.3-66.59-64.52-.57-1.75-3.15-10-2.9-10.91,1.34-4.84,10.03,3.33,12.27,4.55,5.23,2.86,12.13,6.35,17.69,8.31,12.62,4.46,22.82,2.63,32.39,13.11Z"/>
  <path class="cls-1" d="M146.62,157.64c-9.83,13.01-26.75,28.85-44.17,27.4-9.86-.82-9.02-4.69-8.44-13.52.99-15.16,7.32-37.16,22.75-43.25,4.72-1.87,9.24-1.37,13.49-2.51,6.67-1.78,16.41-6.14,22.63-9.37,3.81-1.98,8.43-6.29,11.45-7.64.97-.43,1.33-.9,2.21.17,3.46,3.16-1.37,14.82-3.04,19.08-3.76,9.54-10.68,21.47-16.87,29.65Z"/>
  <path class="cls-1" d="M243.99,518.01c.21,9.85,1.55,19.64,1.05,29.54-.94,18.62-8.21,38.32-12.55,56.46l-15.01-3.98-11.48.98c-.13-17.2-5.28-35.4-3.99-52.48.65-8.67,4.26-17.47,2.99-26.51,10.82,4,21.52,4.53,32.23-.27,1.34-.6,6.04-4.55,6.76-3.73Z"/>
  <path class="cls-1" d="M173.99,522c.07,13.8,3.67,26.66,3.05,40.54-.57,12.74-4.22,25.54-3.05,38.45-8.66-2.23-19.08-1.14-26.5,3.98-.69.01-3.04-8.04-3.45-9.53-5.25-19.33-10.92-40.9-10.09-60.99.1-2.31,1.39-15.96,2.05-16.46,10.61,8.06,25.89,9.35,37.98,4Z"/>
  <path class="cls-1" d="M188.87,118.13l-1.09,70.66c-2.72.65-5.42,1.09-8.24,1.26-8.46.5-20.58-.07-29.04-1.05-3.83-.45-24.41-4.19-26.52-5.48-1.67-1.02,2.02-3.81,2.41-4.12,2.23-1.74,5.31-3.23,7.81-5.45,17.17-15.21,31.7-39.16,35.8-61.95l18.86,6.14Z"/>
  <path class="cls-1" d="M209,111c3.88,25.29,20.83,50.94,40.5,67.01,1,.81,8.34,3.87,5.52,5.52-20.18,4.69-43.21,9.36-63.58,4.54l-.31-69.43,17.87-7.63Z"/>
  <path class="cls-1" d="M189,312c-12.43-.66-32.27-1.47-42.49-9.01-5.36-3.95-7.93-11.22-16.52-11.51l7.02-24.49,50.31,5.97c.66.2,1.69,2.26,1.69,2.53v36.5Z"/>
  <path class="cls-1" d="M191,273c16.93-.25,33.85-2.37,50.38-5.93l7.65,24.4c-8.58.46-10.88,8.14-15.5,11.56-9.54,7.07-30.87,8.39-42.53,8.97v-39Z"/>
  <path class="cls-1" d="M338.43,340.58c3.81,3.19,6.39,7.25,10.07,10.42,2.15,1.85,6.58,2.35,6.5,5.99-7.72,1.61-12.44-5.48-18.99-7.99l4.99,47.99c-2.21.74-3.63-3.81-4.18-5.31-2.24-6.15-1.56-14-5.8-18.68-1.39,9.77,4.88,18.35,3.98,28-2.95-3.54-4.65.52-7.4.08-1.26-.2-9.91-20.11-10.6-23.07-1.35-1.38-1.88.1-2.02,1.51-.41,4.06,2.42,11.46,2.96,16.08.23,1.97-.18,1.44-1.91,1.4-3.46-7.67-4.95-16.08-7.51-24-.88-2.72-2.98-4.86-4.02-7.98-2.24-6.74-2.1-14.11-3.48-21.01,9.03,3.51,16.16-5.38,20.65-12.08,6.66,1.33,11.83,4.52,16.77,8.65Z"/>
  <path class="cls-1" d="M117,374c.22-23.13,3.95-46.58,9.46-69.04.72-2.93,1.43-6.88,2.44-9.56.42-1.1-.59-1.68,1.56-1.39,6.48.87,12.2,7.46,15.01,13.01,12.96,25.57.75,61.07-28.48,66.98Z"/>
  <path class="cls-1" d="M239.74,478.25c2.36,2.46.92,14.21,1.21,18.29.24,3.31,2.76,17.65,1.82,19.25-10.4,8.13-24.92,9.6-36.81,3.73l-5.84-29.15c-.7-7.91-2.02-9.62,5.89-12.85,6.78-2.77,17.01-4.52,24.24-3.28,1.5.26,8.68,3.18,9.48,4.01Z"/>
  <path class="cls-1" d="M179.86,481.14l-6.06,37.16-1.24,1.76c-12.16,5.5-25.7,2.95-36.49-4.2,2.55-12.08,1.72-24.43,2.09-36.71,13.42-8.99,28.47-5.24,41.69,1.98Z"/>
  <path class="cls-1" d="M249.9,294.1c6.15,26.2,12.78,52.76,12.09,79.91-28.53-6.08-40.17-41.66-28.19-66.69,2.64-5.53,9.39-13.94,16.09-13.21Z"/>
  <path class="cls-1" d="M55.9,332.07c2.33,4.79,8.47,12.64,13.84,13.71,2.67.53,7.72-1.27,8.22.82.4,1.7-3.15,19.26-4.18,21.67-2.94,6.86-4.09,10.3-6.49,17.51-1.08,3.24-2.89,9.88-6.29,10.71,1.55-5.11,2.35-10.48,3.29-15.73.16-.9,1.21-3.87-.78-3.75-2.15.14-8.66,22.01-12.19,23.84l-7.31.14,4.99-27.99c-1.99-.38-2.42.9-3.08,2.41-2.24,5.16-2.01,13.65-4.7,19.3-.51,1.07-1.92,3.47-3.23,1.77l5.01-47.48c-5.13.89-8.46,6.37-13.29,8.2-1.29.49-6.38,1.07-5.7-1.69,10.2-5.06,14.13-15.57,24.32-20.69,1.13-.57,7.12-3.06,7.57-2.75Z"/>
  <path class="cls-1" d="M113.99,259c-2.71,22.12-15.22,40.37-24,60h-1.48c-5.03-5.82-14.08-7.42-21.52-7.01l13.01-55.99c10.69,6.76,22.23,7.96,33.98,3Z"/>
  <path class="cls-1" d="M312,312l-12.78,1.73-9.23,4.79c-10.78-18.96-21.31-37.67-24.99-59.51,11.79,3.77,23.47,4.4,33.98-3.01l13.02,56Z"/>
  <path class="cls-1" d="M188,88h-16.5c-3.07,0-4.6-3.41-6.31-5.69-10.79-14.35-14.2-33.73-11.18-51.31,3.31,1.06,7.17,2.41,10.59,2.9,6.63.94,16.11.04,21.9,1.1,1.12.21,1.87.51,2.5,1.5v49c0,.33-1.32,1.52-1,2.5Z"/>
  <path class="cls-1" d="M191,88l-.48-51.05c.71-1.13,1.71-1.69,3.01-1.92,5.63-1.01,14.5-.3,20.84-1.15,3.63-.49,7.48-.95,10.61-2.87,2.1,11.1,1.3,22.71-1.97,33.51-1.89,6.23-9.27,23.49-16.51,23.49h-15.5Z"/>
  <path class="cls-1" d="M285,186l6,50c-11-4.42-21.19-4.87-29.98,4-.66-8.54-7.01-21.52-7.01-29.5,0-7.11,5.23-17.97,6.08-25.42,8.52,1.88,16.18,2.83,24.91.92Z"/>
  <path class="cls-1" d="M117.99,240c-9.05-8.11-19.18-10.35-29.98-4l6.99-50c5.04,1.06,10.23,1.37,15.39.9,2.51-.23,7.71-3.13,9.13-.93l5.48,23.51-7.02,30.52Z"/>
  <path class="cls-1" d="M170.5,633c1.01-.14,4.55-2.7,5.49-2,4.72,9.21-.31,17.83-.05,26.51.14,4.91,5.39,16.67,1.49,19.42-4.51,3.18-8.82-.46-12.89-.96-4.59-.56-10.61.82-14.99-.01-2.48-.47-4.42-3.47-7.54-2.97-1.06-1.17,4.76-6.12,5.82-7.67,1.56-2.28,5.06-8.06,5.51-10.54.54-2.97-1.4-4.66-1.38-7.31.03-3.53,3.85-9.53,2.05-14.47,5.2-.5,11.47.69,16.5,0Z"/>
  <path class="cls-1" d="M225,633c-1.52,4.83,1.72,9.85,1.97,13.61.2,2.96-1.44,5.12-.77,8.64.29,1.55,4.27,9.18,5.37,10.68,1.52,2.06,7.18,4.97,5.43,7.05-.29.35-7.87,2.85-8.56,2.96-4.56.73-10.14-.44-14.89.11-3.31.38-11.17,5.46-12.52-1.58-1.06-5.5,2.25-12.49,2.02-19.02-.3-8.38-4.31-15.72-.01-24.44,1.92-.97,4.92,1.98,5.47,1.98h16.5Z"/>
  <path class="cls-1" d="M189,90v15c1.43-.12,1.76-4.48,1.87-5.62.3-2.91.06-5.8.09-8.71.72-3.03,16.44.86,20.03-1.66-1.07,4.85,1.06,11.43.96,15.59-.08,3.42-16.79,10.06-20.45,10.41-2.54.24-5.07.06-7.57-.45-2.98-.61-16.68-6.33-16.88-8.96-.15-2.03,1.66-6.72,1.88-9.26.2-2.4-1.92-5.55.04-6.88l20.02.54Z"/>
  <path class="cls-1" d="M189,5v27.5l-1.66,1.34c-3.45,1.1-26.41-2.42-30.86-3.81-1.3-.41-1.59.77-1.51-1.52.07-2.15.96-3.41,1.85-5.18,6.38-12.67,17.78-19.34,32.18-18.32Z"/>
  <path class="cls-1" d="M191,5c12.35-2.58,32.57,10.79,33.03,23.49.08,2.31-.18,1.14-1.54,1.49-9.62,2.51-21.53,3.47-31.49,4.02V5Z"/>
  <path class="cls-1" d="M113.87,256.86c-6.44,1.7-11.33,4.02-18.28,3.05-3.06-.43-14.11-3.81-13.58-7.28.14-.89,5.54-13.5,6.02-14.09,4.1-5.08,18.25-4.02,23.67-.74,8.11,4.91,1.91,11.39,2.16,19.07Z"/>
  <path class="cls-1" d="M274.76,235.26c3.9-.5,13.33.75,16.23,3.25.8.69,6.48,15.06,5.57,16.5-1.08,1.71-11.59,4.74-14.07,4.98-6.92.65-16.15-.33-18.21-7.77-2.85-10.29-.79-15.52,10.48-16.96Z"/>
  <path class="cls-1" d="M230.88,606.11l-4.88,23.4c-3.77,2.49-21.67,2.93-21.93-2.93-.15-3.44,1.59-10.23,1.91-14.08.25-3.11-.3-6.28.13-9.38,8.55-4.13,16.39.67,24.76,2.99Z"/>
  <path class="cls-1" d="M172.9,603.1l2.11,23.38c-.59,6.48-18.46,5.16-22.84,2.34l-4.09-22.76c8.45-2.01,16.05-6.69,24.82-2.97Z"/>
  <path class="cls-1" d="M76.75,342.74c-1.83,1.77-6.23,1.51-8.51.51-1.2-.53-9.43-8.9-9.85-10.23-1.1-3.52,2.19-5.64,3.48-8.64,1.03-2.39,2.74-9.71,4.78-10.27,7.78,1.18,15.93.21,21.07,7.38-3.51,4.51-7.56,17.96-10.97,21.26Z"/>
  <path class="cls-1" d="M302.21,341.77c-1.31-.76-10.49-19.41-10.07-21.06,1.07-4.25,16.76-7.71,20.19-6.57,1.36.45,7.64,15.54,7.27,16.89-2.89,4.58-11.47,14.15-17.39,10.74Z"/>
</svg>